M48
;DRILL file {KiCad (5.0.1-3-g963ef8bb5)} date Monday, 26 November 2018 at 20:52:08
;FORMAT={-:-/ absolute / metric / decimal}
FMAT,2
METRIC,TZ
T1C0.100
T2C1.200
T3C1.700
T4C1.800
T5C1.900
T6C3.000
T7C4.000
T8C4.800
%
G90
G05
M71
T1
X145.828Y-130.807
X153.017Y-133.424
X165.277Y-139.153
X171.903Y-142.978
X124.681Y-125.695
X132.215Y-127.023
X103.325Y-124.52
X110.975Y-124.52
T2
X172.676Y-108.879
X173.359Y-107.268
X179.119Y-111.614
X179.803Y-110.003
T3
X112.23Y-127.1
X143.766Y-132.803
X153.314Y-136.277
X162.901Y-140.76
X171.699Y-145.84
X122.997Y-128.018
X133.003Y-129.782
X102.07Y-127.1
T4
X102.07Y-82.385
X112.23Y-82.385
X159.22Y-74.765
X169.38Y-74.765
X102.07Y-44.285
X112.23Y-44.285
X83.02Y-48.095
X93.18Y-48.095
X83.02Y-67.145
X93.18Y-67.145
X140.17Y-90.005
X150.33Y-90.005
X44.92Y-88.1
X55.08Y-88.1
X44.92Y-107.15
X55.08Y-107.15
X44.92Y-50.
X55.08Y-50.
X83.02Y-105.245
X93.18Y-105.245
X102.07Y-63.335
X112.23Y-63.335
X159.22Y-55.715
X169.38Y-55.715
X140.17Y-51.905
X150.33Y-51.905
X121.12Y-48.095
X131.28Y-48.095
X121.12Y-67.145
X131.28Y-67.145
X121.12Y-105.245
X131.28Y-105.245
X159.22Y-93.815
X169.38Y-93.815
X102.07Y-101.435
X112.23Y-101.435
X63.97Y-50.
X74.13Y-50.
X44.92Y-69.05
X55.08Y-69.05
X140.17Y-109.055
X150.33Y-109.055
X140.17Y-70.955
X150.33Y-70.955
X63.97Y-107.15
X74.13Y-107.15
X63.97Y-69.05
X74.13Y-69.05
X63.97Y-88.1
X74.13Y-88.1
X121.12Y-86.195
X131.28Y-86.195
X83.02Y-86.195
X93.18Y-86.195
X162.174Y-117.785
X171.526Y-121.755
T5
X101.65Y-127.1
X112.65Y-127.1
X143.372Y-132.659
X153.708Y-136.421
X162.537Y-140.55
X172.063Y-146.05
X122.584Y-127.945
X133.416Y-129.855
T6
X65.24Y-71.59
X66.51Y-74.13
X71.59Y-74.13
X72.86Y-71.59
X65.24Y-90.64
X66.51Y-93.18
X71.59Y-93.18
X72.86Y-90.64
X122.39Y-88.735
X123.66Y-91.275
X128.74Y-91.275
X130.01Y-88.735
X142.576Y-136.307
X145.829Y-130.85
X146.522Y-140.084
X147.891Y-128.898
X151.973Y-139.727
X152.664Y-130.635
X152.989Y-133.456
X152.989Y-133.456
X84.29Y-88.735
X85.56Y-91.275
X90.64Y-91.275
X91.91Y-88.735
X162.35Y-120.619
X162.527Y-123.454
X167.203Y-125.439
X169.365Y-123.597
X103.34Y-84.925
X104.61Y-87.465
X109.69Y-87.465
X110.96Y-84.925
X160.49Y-77.305
X161.76Y-79.845
X166.84Y-79.845
X168.11Y-77.305
X161.12Y-144.004
X164.35Y-148.41
X165.27Y-139.195
X167.64Y-137.631
X169.78Y-149.004
X171.87Y-143.005
X171.87Y-143.005
X172.04Y-140.171
X103.34Y-46.825
X104.61Y-49.365
X109.69Y-49.365
X110.96Y-46.825
X84.29Y-50.635
X85.56Y-53.175
X90.64Y-53.175
X91.91Y-50.635
X84.29Y-69.685
X85.56Y-72.225
X90.64Y-72.225
X91.91Y-69.685
X141.44Y-92.545
X142.71Y-95.085
X147.79Y-95.085
X149.06Y-92.545
X46.19Y-90.64
X47.46Y-93.18
X52.54Y-93.18
X53.81Y-90.64
X46.19Y-104.61
X47.46Y-102.07
X52.54Y-102.07
X53.81Y-104.61
X46.19Y-52.54
X47.46Y-55.08
X52.54Y-55.08
X53.81Y-52.54
X84.29Y-102.705
X85.56Y-100.165
X90.64Y-100.165
X91.91Y-102.705
X103.34Y-65.875
X104.61Y-68.415
X109.69Y-68.415
X110.96Y-65.875
X160.49Y-58.255
X161.76Y-60.795
X166.84Y-60.795
X168.11Y-58.255
X141.44Y-54.445
X142.71Y-56.985
X147.79Y-56.985
X149.06Y-54.445
X122.39Y-50.635
X123.66Y-53.175
X128.74Y-53.175
X130.01Y-50.635
X122.39Y-69.685
X123.66Y-72.225
X128.74Y-72.225
X130.01Y-69.685
X122.39Y-102.705
X123.66Y-100.165
X128.74Y-100.165
X130.01Y-102.705
X122.433Y-131.676
X124.689Y-125.737
X126.381Y-123.456
X126.975Y-134.71
X131.384Y-124.338
X132.193Y-127.06
X132.193Y-127.06
X132.282Y-133.412
X160.49Y-96.355
X161.76Y-98.895
X166.84Y-98.895
X168.11Y-96.355
X102.15Y-130.8
X103.34Y-124.56
X104.61Y-122.02
X107.15Y-133.
X109.69Y-122.02
X110.96Y-124.56
X110.96Y-124.56
X112.15Y-130.8
X103.34Y-98.895
X104.61Y-96.355
X109.69Y-96.355
X110.96Y-98.895
X65.24Y-52.54
X66.51Y-55.08
X71.59Y-55.08
X72.86Y-52.54
X46.19Y-71.59
X47.46Y-74.13
X52.54Y-74.13
X53.81Y-71.59
X141.44Y-106.515
X142.71Y-103.975
X147.79Y-103.975
X149.06Y-106.515
X141.44Y-73.495
X142.71Y-76.035
X147.79Y-76.035
X149.06Y-73.495
X65.24Y-104.61
X66.51Y-102.07
X71.59Y-102.07
X72.86Y-104.61
T7
X50.Y-50.
X88.1Y-105.245
X107.15Y-63.335
X164.3Y-55.715
X145.25Y-51.905
X126.2Y-48.095
X126.2Y-67.145
X126.2Y-105.245
X128.Y-128.9
X164.3Y-93.815
X107.15Y-127.1
X107.15Y-101.435
X69.05Y-50.
X50.Y-69.05
X145.25Y-109.055
X145.25Y-70.955
X69.05Y-107.15
X69.05Y-69.05
X69.05Y-88.1
X126.2Y-86.195
X148.54Y-134.54
X88.1Y-86.195
X166.85Y-119.77
X107.15Y-82.385
X164.3Y-74.765
X167.3Y-143.3
X107.15Y-44.285
X88.1Y-48.095
X88.1Y-67.145
X145.25Y-90.005
X50.Y-88.1
X50.Y-107.15
T8
X154.1Y-80.5
X116.Y-53.8
X116.Y-91.9
X59.5Y-97.6
X59.5Y-59.5
X151.6Y-119.5
T0
M30
