M48
;DRILL file {KiCad (5.0.1-3-g963ef8bb5)} date Wednesday, 28 November 2018 at 19:35:15
;FORMAT={-:-/ absolute / metric / decimal}
FMAT,2
METRIC,TZ
T1C0.400
T2C0.813
T3C1.000
T4C1.300
%
G90
G05
M71
T1
X45.432Y-109.475
X46.1Y-132.086
X47.8Y-131.2
X48.632Y-132.068
X49.7Y-128.2
X50.Y-53.
X50.Y-103.9
X51.625Y-130.325
X54.34Y-121.44
X54.568Y-47.675
X54.568Y-66.725
X54.568Y-85.775
X55.5Y-126.5
X56.252Y-132.048
X58.Y-129.7
X58.792Y-132.092
X61.332Y-132.068
X63.872Y-132.072
X64.482Y-109.475
X66.412Y-132.088
X68.952Y-132.048
X69.Y-72.2
X69.1Y-53.1
X71.492Y-132.092
X73.618Y-47.675
X73.618Y-66.725
X73.618Y-85.775
X74.032Y-132.068
X79.8Y-96.2
X83.7Y-107.7
X88.1Y-51.2
X88.1Y-70.3
X88.1Y-89.4
X91.Y-118.6
X92.4Y-117.7
X92.668Y-45.77
X92.668Y-64.82
X92.668Y-83.87
X93.7Y-114.8
X97.Y-94.3
X99.Y-117.3
X99.2Y-115.9
X101.1Y-115.9
X101.55Y-118.85
X102.5Y-103.76
X107.1Y-47.3
X107.1Y-66.6
X107.1Y-85.7
X107.1Y-123.8
X111.718Y-41.96
X111.718Y-61.01
X111.718Y-80.06
X113.7Y-117.8
X120.9Y-122.7
X121.4Y-107.6
X126.2Y-51.3
X126.2Y-89.4
X126.3Y-70.3
X128.5Y-125.8
X130.768Y-45.77
X130.768Y-64.82
X130.768Y-83.87
X131.7Y-117.7
X139.249Y-127.851
X140.802Y-111.5
X143.1Y-112.7
X145.2Y-55.
X145.2Y-74.2
X145.3Y-93.2
X149.6Y-131.5
X149.78Y-87.68
X149.818Y-49.58
X149.818Y-68.63
X156.4Y-108.3
X158.5Y-117.2
X162.9Y-134.
X163.744Y-127.544
X164.3Y-58.7
X164.3Y-77.9
X164.3Y-97.
X165.6Y-122.7
X168.79Y-53.39
X168.868Y-91.49
X168.9Y-140.4
X168.94Y-72.44
X170.Y-114.2
T2
X141.44Y-101.055
X149.06Y-101.055
X65.24Y-58.
X72.86Y-58.
X103.34Y-93.435
X110.96Y-93.435
X143.32Y-122.697
X150.48Y-125.303
X65.24Y-96.1
X72.86Y-96.1
X141.44Y-98.005
X149.06Y-98.005
X84.29Y-97.245
X91.91Y-97.245
X92.4Y-129.7
X160.49Y-101.815
X168.11Y-101.815
X141.44Y-78.955
X149.06Y-78.955
X46.19Y-96.1
X53.81Y-96.1
X84.29Y-56.095
X91.91Y-56.095
X122.39Y-97.245
X130.01Y-97.245
X46.19Y-58.
X53.81Y-58.
X160.49Y-104.2
X168.11Y-104.2
X46.19Y-99.15
X53.81Y-99.15
X44.822Y-118.144
X44.822Y-133.364
X46.092Y-119.45
X46.092Y-134.69
X47.362Y-118.144
X47.362Y-133.364
X48.632Y-119.45
X48.632Y-134.69
X49.902Y-118.144
X49.902Y-133.364
X51.172Y-119.45
X51.172Y-134.69
X52.442Y-118.144
X52.442Y-133.364
X53.712Y-119.45
X53.712Y-134.69
X54.982Y-118.144
X54.982Y-133.364
X56.252Y-119.45
X56.252Y-134.69
X57.522Y-118.144
X57.522Y-133.364
X58.792Y-119.45
X58.792Y-134.69
X60.062Y-118.144
X60.062Y-133.364
X61.332Y-119.45
X61.332Y-134.69
X62.602Y-118.144
X62.602Y-133.364
X63.872Y-119.45
X63.872Y-134.69
X65.142Y-118.144
X65.142Y-133.364
X66.412Y-119.45
X66.412Y-134.69
X67.682Y-118.144
X67.682Y-133.364
X68.952Y-119.45
X68.952Y-134.69
X70.222Y-118.144
X70.222Y-133.364
X71.492Y-119.45
X71.492Y-134.69
X72.762Y-118.144
X72.762Y-133.364
X74.032Y-119.45
X74.032Y-134.69
X125.848Y-119.038
X133.352Y-120.362
X46.19Y-77.05
X53.81Y-77.05
X92.4Y-126.5
X158.693Y-129.511
X165.707Y-132.489
X103.34Y-71.335
X110.96Y-71.335
X122.39Y-94.195
X130.01Y-94.195
X160.49Y-63.715
X168.11Y-63.715
X103.34Y-90.385
X110.96Y-90.385
X141.44Y-59.905
X149.06Y-59.905
X84.29Y-75.145
X91.91Y-75.145
X122.39Y-56.095
X130.01Y-56.095
X84.76Y-126.5
X89.84Y-126.5
X65.29Y-99.15
X72.91Y-99.15
X160.49Y-82.765
X168.11Y-82.765
X84.76Y-129.7
X89.84Y-129.7
X84.29Y-94.195
X91.91Y-94.195
X65.24Y-77.05
X72.86Y-77.05
X122.39Y-75.145
X130.01Y-75.145
X103.34Y-52.285
X110.96Y-52.285
X103.34Y-117.7
X110.96Y-117.7
T4
X85.65Y-133.6
X92.15Y-133.6
T3
X169.731Y-108.009G85X169.271Y-107.814
G05
X170.428Y-110.206G85X169.968Y-110.011
G05
X170.689Y-105.754G85X170.228Y-105.559
G05
X172.753Y-104.729G85X172.293Y-104.534
G05
X174.11Y-111.769G85X173.65Y-111.574
G05
X176.435Y-106.292G85X175.975Y-106.097
G05
X176.872Y-112.941G85X176.412Y-112.746
G05
X179.197Y-107.464G85X178.737Y-107.269
G05
T0
M30
