G04 #@! TF.GenerationSoftware,KiCad,Pcbnew,(5.0.1-3-g963ef8bb5)*
G04 #@! TF.CreationDate,2018-11-28T19:35:09+09:00*
G04 #@! TF.ProjectId,Pinky,50696E6B792E6B696361645F70636200,rev?*
G04 #@! TF.SameCoordinates,Original*
G04 #@! TF.FileFunction,Profile,NP*
%FSLAX46Y46*%
G04 Gerber Fmt 4.6, Leading zero omitted, Abs format (unit mm)*
G04 Created by KiCad (PCBNEW (5.0.1-3-g963ef8bb5)) date Wednesday, 28 November 2018 at 19:35:09*
%MOMM*%
%LPD*%
G01*
G04 APERTURE LIST*
%ADD10C,0.150000*%
G04 APERTURE END LIST*
D10*
X40294153Y-41431857D02*
G75*
G02X41100000Y-40600000I1005846J-168142D01*
G01*
X173300698Y-46400087D02*
G75*
G02X174000000Y-47100000I-100698J-799913D01*
G01*
X182000000Y-106800000D02*
G75*
G02X182400000Y-107800000I-300000J-700000D01*
G01*
X171500000Y-155400000D02*
G75*
G02X170500000Y-155600000I-600000J400000D01*
G01*
X179500000Y-139800000D02*
G75*
G02X179800000Y-140900000I-400000J-700000D01*
G01*
X41000000Y-136300000D02*
G75*
G02X40300000Y-135600000I0J700000D01*
G01*
X153900000Y-146200000D02*
X155000000Y-146700000D01*
X171500000Y-135200000D02*
G75*
G02X171200000Y-134300000I300000J600000D01*
G01*
X135300000Y-139400000D02*
X137000000Y-140000000D01*
X155000000Y-146700000D02*
X170500000Y-155600000D01*
X137000000Y-140000000D02*
X153900000Y-146200000D01*
X117500000Y-136300000D02*
X135300000Y-139400000D01*
X179800000Y-140900000D02*
X171500000Y-155400000D01*
X171500000Y-135200000D02*
X179500000Y-139800000D01*
X182000000Y-106800000D02*
X174000000Y-103400000D01*
X171200000Y-134300000D02*
X182400000Y-107800000D01*
X174000000Y-47100000D02*
X174000000Y-103400000D01*
X116200000Y-35200000D02*
X173300000Y-46400000D01*
X98100000Y-35200000D02*
X116200000Y-35200000D01*
X41100000Y-40600000D02*
X98100000Y-35200000D01*
X40300000Y-135600000D02*
X40300000Y-41400000D01*
X117500000Y-136300000D02*
X41000000Y-136300000D01*
M02*
