G04 #@! TF.GenerationSoftware,KiCad,Pcbnew,(5.0.1-3-g963ef8bb5)*
G04 #@! TF.CreationDate,2018-11-26T20:52:51+09:00*
G04 #@! TF.ProjectId,Pinky,50696E6B792E6B696361645F70636200,rev?*
G04 #@! TF.SameCoordinates,Original*
G04 #@! TF.FileFunction,Legend,Top*
G04 #@! TF.FilePolarity,Positive*
%FSLAX46Y46*%
G04 Gerber Fmt 4.6, Leading zero omitted, Abs format (unit mm)*
G04 Created by KiCad (PCBNEW (5.0.1-3-g963ef8bb5)) date Monday, 26 November 2018 at 20:52:51*
%MOMM*%
%LPD*%
G01*
G04 APERTURE LIST*
%ADD10C,0.300000*%
%ADD11C,0.800000*%
%ADD12C,3.000000*%
%ADD13C,0.500000*%
%ADD14C,1.000000*%
%ADD15C,3.500000*%
%ADD16C,0.150000*%
%ADD17C,0.400000*%
%ADD18C,0.125000*%
G04 APERTURE END LIST*
D10*
X79164285Y-120603571D02*
X79164285Y-119603571D01*
X79164285Y-119889285D02*
X79235714Y-119746428D01*
X79307142Y-119675000D01*
X79450000Y-119603571D01*
X79592857Y-119603571D01*
X80664285Y-120532142D02*
X80521428Y-120603571D01*
X80235714Y-120603571D01*
X80092857Y-120532142D01*
X80021428Y-120389285D01*
X80021428Y-119817857D01*
X80092857Y-119675000D01*
X80235714Y-119603571D01*
X80521428Y-119603571D01*
X80664285Y-119675000D01*
X80735714Y-119817857D01*
X80735714Y-119960714D01*
X80021428Y-120103571D01*
X81235714Y-119603571D02*
X81592857Y-120603571D01*
X81950000Y-119603571D01*
X82521428Y-120460714D02*
X82592857Y-120532142D01*
X82521428Y-120603571D01*
X82450000Y-120532142D01*
X82521428Y-120460714D01*
X82521428Y-120603571D01*
X84664285Y-119103571D02*
X84807142Y-119103571D01*
X84950000Y-119175000D01*
X85021428Y-119246428D01*
X85092857Y-119389285D01*
X85164285Y-119675000D01*
X85164285Y-120032142D01*
X85092857Y-120317857D01*
X85021428Y-120460714D01*
X84950000Y-120532142D01*
X84807142Y-120603571D01*
X84664285Y-120603571D01*
X84521428Y-120532142D01*
X84450000Y-120460714D01*
X84378571Y-120317857D01*
X84307142Y-120032142D01*
X84307142Y-119675000D01*
X84378571Y-119389285D01*
X84450000Y-119246428D01*
X84521428Y-119175000D01*
X84664285Y-119103571D01*
X85807142Y-120460714D02*
X85878571Y-120532142D01*
X85807142Y-120603571D01*
X85735714Y-120532142D01*
X85807142Y-120460714D01*
X85807142Y-120603571D01*
X87307142Y-120603571D02*
X86450000Y-120603571D01*
X86878571Y-120603571D02*
X86878571Y-119103571D01*
X86735714Y-119317857D01*
X86592857Y-119460714D01*
X86450000Y-119532142D01*
X78057142Y-122439285D02*
X77985714Y-122367857D01*
X77842857Y-122296428D01*
X77700000Y-122296428D01*
X77557142Y-122367857D01*
X77485714Y-122439285D01*
X77414285Y-122582142D01*
X77414285Y-122725000D01*
X77485714Y-122867857D01*
X77557142Y-122939285D01*
X77700000Y-123010714D01*
X77842857Y-123010714D01*
X77985714Y-122939285D01*
X78057142Y-122867857D01*
X78057142Y-122296428D02*
X78057142Y-122867857D01*
X78128571Y-122939285D01*
X78200000Y-122939285D01*
X78342857Y-122867857D01*
X78414285Y-122725000D01*
X78414285Y-122367857D01*
X78271428Y-122153571D01*
X78057142Y-122010714D01*
X77771428Y-121939285D01*
X77485714Y-122010714D01*
X77271428Y-122153571D01*
X77128571Y-122367857D01*
X77057142Y-122653571D01*
X77128571Y-122939285D01*
X77271428Y-123153571D01*
X77485714Y-123296428D01*
X77771428Y-123367857D01*
X78057142Y-123296428D01*
X78271428Y-123153571D01*
X78842857Y-122153571D02*
X79414285Y-122153571D01*
X79057142Y-121653571D02*
X79057142Y-122939285D01*
X79128571Y-123082142D01*
X79271428Y-123153571D01*
X79414285Y-123153571D01*
X80557142Y-123153571D02*
X80557142Y-122367857D01*
X80485714Y-122225000D01*
X80342857Y-122153571D01*
X80057142Y-122153571D01*
X79914285Y-122225000D01*
X80557142Y-123082142D02*
X80414285Y-123153571D01*
X80057142Y-123153571D01*
X79914285Y-123082142D01*
X79842857Y-122939285D01*
X79842857Y-122796428D01*
X79914285Y-122653571D01*
X80057142Y-122582142D01*
X80414285Y-122582142D01*
X80557142Y-122510714D01*
X81271428Y-123153571D02*
X81271428Y-122153571D01*
X81271428Y-122296428D02*
X81342857Y-122225000D01*
X81485714Y-122153571D01*
X81700000Y-122153571D01*
X81842857Y-122225000D01*
X81914285Y-122367857D01*
X81914285Y-123153571D01*
X81914285Y-122367857D02*
X81985714Y-122225000D01*
X82128571Y-122153571D01*
X82342857Y-122153571D01*
X82485714Y-122225000D01*
X82557142Y-122367857D01*
X82557142Y-123153571D01*
X83914285Y-123153571D02*
X83914285Y-122367857D01*
X83842857Y-122225000D01*
X83700000Y-122153571D01*
X83414285Y-122153571D01*
X83271428Y-122225000D01*
X83914285Y-123082142D02*
X83771428Y-123153571D01*
X83414285Y-123153571D01*
X83271428Y-123082142D01*
X83200000Y-122939285D01*
X83200000Y-122796428D01*
X83271428Y-122653571D01*
X83414285Y-122582142D01*
X83771428Y-122582142D01*
X83914285Y-122510714D01*
X84628571Y-122153571D02*
X84628571Y-123153571D01*
X84628571Y-122296428D02*
X84700000Y-122225000D01*
X84842857Y-122153571D01*
X85057142Y-122153571D01*
X85200000Y-122225000D01*
X85271428Y-122367857D01*
X85271428Y-123153571D01*
X85985714Y-123153571D02*
X85985714Y-122153571D01*
X85985714Y-121653571D02*
X85914285Y-121725000D01*
X85985714Y-121796428D01*
X86057142Y-121725000D01*
X85985714Y-121653571D01*
X85985714Y-121796428D01*
X86628571Y-123082142D02*
X86771428Y-123153571D01*
X87057142Y-123153571D01*
X87200000Y-123082142D01*
X87271428Y-122939285D01*
X87271428Y-122867857D01*
X87200000Y-122725000D01*
X87057142Y-122653571D01*
X86842857Y-122653571D01*
X86700000Y-122582142D01*
X86628571Y-122439285D01*
X86628571Y-122367857D01*
X86700000Y-122225000D01*
X86842857Y-122153571D01*
X87057142Y-122153571D01*
X87200000Y-122225000D01*
X87914285Y-123153571D02*
X87914285Y-121653571D01*
X88557142Y-123153571D02*
X88557142Y-122367857D01*
X88485714Y-122225000D01*
X88342857Y-122153571D01*
X88128571Y-122153571D01*
X87985714Y-122225000D01*
X87914285Y-122296428D01*
X89271428Y-123153571D02*
X89271428Y-122153571D01*
X89271428Y-121653571D02*
X89200000Y-121725000D01*
X89271428Y-121796428D01*
X89342857Y-121725000D01*
X89271428Y-121653571D01*
X89271428Y-121796428D01*
G04 #@! TO.C,SW20*
X120400001Y-70945000D02*
X120400000Y-71844999D01*
D11*
X120900000Y-68745000D02*
X120900000Y-70545000D01*
D12*
X122030000Y-72245000D02*
X122030000Y-70005000D01*
D13*
X130500000Y-70445000D02*
X129100000Y-70445000D01*
D14*
X130100000Y-73145000D02*
X130100000Y-70645000D01*
D15*
X128800000Y-71945000D02*
X122100000Y-71945000D01*
D16*
X130800000Y-70145000D02*
X130800000Y-71145000D01*
X130800000Y-71145000D02*
X130600000Y-71145000D01*
X130580000Y-71145000D02*
X130580000Y-73395000D01*
X130600000Y-73395000D02*
X130800000Y-73395000D01*
X120300000Y-70845000D02*
X120500000Y-70845000D01*
X120530000Y-70845000D02*
X120530000Y-68605000D01*
X120500000Y-68605000D02*
X120300000Y-68605000D01*
X120300000Y-68245000D02*
X120300000Y-68605000D01*
X120300000Y-71845000D02*
X120300000Y-70845000D01*
X120300000Y-68245000D02*
X123580000Y-68245000D01*
X125800000Y-70145000D02*
X130800000Y-70145000D01*
X130800000Y-73745000D02*
X122400000Y-73745001D01*
X123583682Y-68266471D02*
G75*
G03X125800000Y-70145000I2151318J291471D01*
G01*
X120299999Y-71845000D02*
G75*
G03X122400000Y-73745001I2000001J100000D01*
G01*
X130800000Y-73395000D02*
X130800000Y-73745000D01*
D14*
X123183682Y-68666471D02*
G75*
G03X125400000Y-70545000I2151318J291471D01*
G01*
D13*
X120500000Y-68445000D02*
X123200000Y-68445000D01*
D17*
X130600000Y-73545000D02*
X129200000Y-73545000D01*
X130600000Y-71045000D02*
X130600000Y-70345000D01*
G04 #@! TO.C,SW16*
X111550000Y-86285000D02*
X111550000Y-85585000D01*
X111550000Y-88785000D02*
X110150000Y-88785000D01*
D13*
X101450000Y-83685000D02*
X104150000Y-83685000D01*
D14*
X104133682Y-83906471D02*
G75*
G03X106350000Y-85785000I2151318J291471D01*
G01*
D16*
X111750000Y-88635000D02*
X111750000Y-88985000D01*
X101249999Y-87085000D02*
G75*
G03X103350000Y-88985001I2000001J100000D01*
G01*
X104533682Y-83506471D02*
G75*
G03X106750000Y-85385000I2151318J291471D01*
G01*
X111750000Y-88985000D02*
X103350000Y-88985001D01*
X106750000Y-85385000D02*
X111750000Y-85385000D01*
X101250000Y-83485000D02*
X104530000Y-83485000D01*
X101250000Y-87085000D02*
X101250000Y-86085000D01*
X101250000Y-83485000D02*
X101250000Y-83845000D01*
X101450000Y-83845000D02*
X101250000Y-83845000D01*
X101480000Y-86085000D02*
X101480000Y-83845000D01*
X101250000Y-86085000D02*
X101450000Y-86085000D01*
X111550000Y-88635000D02*
X111750000Y-88635000D01*
X111530000Y-86385000D02*
X111530000Y-88635000D01*
X111750000Y-86385000D02*
X111550000Y-86385000D01*
X111750000Y-85385000D02*
X111750000Y-86385000D01*
D15*
X109750000Y-87185000D02*
X103050000Y-87185000D01*
D14*
X111050000Y-88385000D02*
X111050000Y-85885000D01*
D13*
X111450000Y-85685000D02*
X110050000Y-85685000D01*
D12*
X102980000Y-87485000D02*
X102980000Y-85245000D01*
D11*
X101850000Y-83985000D02*
X101850000Y-85785000D01*
D10*
X101350001Y-86185000D02*
X101350000Y-87084999D01*
D17*
G04 #@! TO.C,SW15*
X111550000Y-67235000D02*
X111550000Y-66535000D01*
X111550000Y-69735000D02*
X110150000Y-69735000D01*
D13*
X101450000Y-64635000D02*
X104150000Y-64635000D01*
D14*
X104133682Y-64856471D02*
G75*
G03X106350000Y-66735000I2151318J291471D01*
G01*
D16*
X111750000Y-69585000D02*
X111750000Y-69935000D01*
X101249999Y-68035000D02*
G75*
G03X103350000Y-69935001I2000001J100000D01*
G01*
X104533682Y-64456471D02*
G75*
G03X106750000Y-66335000I2151318J291471D01*
G01*
X111750000Y-69935000D02*
X103350000Y-69935001D01*
X106750000Y-66335000D02*
X111750000Y-66335000D01*
X101250000Y-64435000D02*
X104530000Y-64435000D01*
X101250000Y-68035000D02*
X101250000Y-67035000D01*
X101250000Y-64435000D02*
X101250000Y-64795000D01*
X101450000Y-64795000D02*
X101250000Y-64795000D01*
X101480000Y-67035000D02*
X101480000Y-64795000D01*
X101250000Y-67035000D02*
X101450000Y-67035000D01*
X111550000Y-69585000D02*
X111750000Y-69585000D01*
X111530000Y-67335000D02*
X111530000Y-69585000D01*
X111750000Y-67335000D02*
X111550000Y-67335000D01*
X111750000Y-66335000D02*
X111750000Y-67335000D01*
D15*
X109750000Y-68135000D02*
X103050000Y-68135000D01*
D14*
X111050000Y-69335000D02*
X111050000Y-66835000D01*
D13*
X111450000Y-66635000D02*
X110050000Y-66635000D01*
D12*
X102980000Y-68435000D02*
X102980000Y-66195000D01*
D11*
X101850000Y-64935000D02*
X101850000Y-66735000D01*
D10*
X101350001Y-67135000D02*
X101350000Y-68034999D01*
D17*
G04 #@! TO.C,SW10*
X92500000Y-51995000D02*
X92500000Y-51295000D01*
X92500000Y-54495000D02*
X91100000Y-54495000D01*
D13*
X82400000Y-49395000D02*
X85100000Y-49395000D01*
D14*
X85083682Y-49616471D02*
G75*
G03X87300000Y-51495000I2151318J291471D01*
G01*
D16*
X92700000Y-54345000D02*
X92700000Y-54695000D01*
X82199999Y-52795000D02*
G75*
G03X84300000Y-54695001I2000001J100000D01*
G01*
X85483682Y-49216471D02*
G75*
G03X87700000Y-51095000I2151318J291471D01*
G01*
X92700000Y-54695000D02*
X84300000Y-54695001D01*
X87700000Y-51095000D02*
X92700000Y-51095000D01*
X82200000Y-49195000D02*
X85480000Y-49195000D01*
X82200000Y-52795000D02*
X82200000Y-51795000D01*
X82200000Y-49195000D02*
X82200000Y-49555000D01*
X82400000Y-49555000D02*
X82200000Y-49555000D01*
X82430000Y-51795000D02*
X82430000Y-49555000D01*
X82200000Y-51795000D02*
X82400000Y-51795000D01*
X92500000Y-54345000D02*
X92700000Y-54345000D01*
X92480000Y-52095000D02*
X92480000Y-54345000D01*
X92700000Y-52095000D02*
X92500000Y-52095000D01*
X92700000Y-51095000D02*
X92700000Y-52095000D01*
D15*
X90700000Y-52895000D02*
X84000000Y-52895000D01*
D14*
X92000000Y-54095000D02*
X92000000Y-51595000D01*
D13*
X92400000Y-51395000D02*
X91000000Y-51395000D01*
D12*
X83930000Y-53195000D02*
X83930000Y-50955000D01*
D11*
X82800000Y-49695000D02*
X82800000Y-51495000D01*
D10*
X82300001Y-51895000D02*
X82300000Y-52794999D01*
G04 #@! TO.C,SW11*
X82300001Y-70945000D02*
X82300000Y-71844999D01*
D11*
X82800000Y-68745000D02*
X82800000Y-70545000D01*
D12*
X83930000Y-72245000D02*
X83930000Y-70005000D01*
D13*
X92400000Y-70445000D02*
X91000000Y-70445000D01*
D14*
X92000000Y-73145000D02*
X92000000Y-70645000D01*
D15*
X90700000Y-71945000D02*
X84000000Y-71945000D01*
D16*
X92700000Y-70145000D02*
X92700000Y-71145000D01*
X92700000Y-71145000D02*
X92500000Y-71145000D01*
X92480000Y-71145000D02*
X92480000Y-73395000D01*
X92500000Y-73395000D02*
X92700000Y-73395000D01*
X82200000Y-70845000D02*
X82400000Y-70845000D01*
X82430000Y-70845000D02*
X82430000Y-68605000D01*
X82400000Y-68605000D02*
X82200000Y-68605000D01*
X82200000Y-68245000D02*
X82200000Y-68605000D01*
X82200000Y-71845000D02*
X82200000Y-70845000D01*
X82200000Y-68245000D02*
X85480000Y-68245000D01*
X87700000Y-70145000D02*
X92700000Y-70145000D01*
X92700000Y-73745000D02*
X84300000Y-73745001D01*
X85483682Y-68266471D02*
G75*
G03X87700000Y-70145000I2151318J291471D01*
G01*
X82199999Y-71845000D02*
G75*
G03X84300000Y-73745001I2000001J100000D01*
G01*
X92700000Y-73395000D02*
X92700000Y-73745000D01*
D14*
X85083682Y-68666471D02*
G75*
G03X87300000Y-70545000I2151318J291471D01*
G01*
D13*
X82400000Y-68445000D02*
X85100000Y-68445000D01*
D17*
X92500000Y-73545000D02*
X91100000Y-73545000D01*
X92500000Y-71045000D02*
X92500000Y-70345000D01*
D16*
G04 #@! TO.C,D12*
X90800000Y-97995000D02*
X90800000Y-96495000D01*
X85400000Y-97995000D02*
X90800000Y-97995000D01*
X85400000Y-96495000D02*
X85400000Y-97995000D01*
X90800000Y-96495000D02*
X85400000Y-96495000D01*
X87600000Y-96745000D02*
X87600000Y-97745000D01*
X88600000Y-97745000D02*
X87700000Y-97245000D01*
X88600000Y-96745000D02*
X88600000Y-97745000D01*
X87700000Y-97245000D02*
X88600000Y-96745000D01*
D10*
G04 #@! TO.C,SW3*
X44200001Y-72850000D02*
X44200000Y-73749999D01*
D11*
X44700000Y-70650000D02*
X44700000Y-72450000D01*
D12*
X45830000Y-74150000D02*
X45830000Y-71910000D01*
D13*
X54300000Y-72350000D02*
X52900000Y-72350000D01*
D14*
X53900000Y-75050000D02*
X53900000Y-72550000D01*
D15*
X52600000Y-73850000D02*
X45900000Y-73850000D01*
D16*
X54600000Y-72050000D02*
X54600000Y-73050000D01*
X54600000Y-73050000D02*
X54400000Y-73050000D01*
X54380000Y-73050000D02*
X54380000Y-75300000D01*
X54400000Y-75300000D02*
X54600000Y-75300000D01*
X44100000Y-72750000D02*
X44300000Y-72750000D01*
X44330000Y-72750000D02*
X44330000Y-70510000D01*
X44300000Y-70510000D02*
X44100000Y-70510000D01*
X44100000Y-70150000D02*
X44100000Y-70510000D01*
X44100000Y-73750000D02*
X44100000Y-72750000D01*
X44100000Y-70150000D02*
X47380000Y-70150000D01*
X49600000Y-72050000D02*
X54600000Y-72050000D01*
X54600000Y-75650000D02*
X46200000Y-75650001D01*
X47383682Y-70171471D02*
G75*
G03X49600000Y-72050000I2151318J291471D01*
G01*
X44099999Y-73750000D02*
G75*
G03X46200000Y-75650001I2000001J100000D01*
G01*
X54600000Y-75300000D02*
X54600000Y-75650000D01*
D14*
X46983682Y-70571471D02*
G75*
G03X49200000Y-72450000I2151318J291471D01*
G01*
D13*
X44300000Y-70350000D02*
X47000000Y-70350000D01*
D17*
X54400000Y-75450000D02*
X53000000Y-75450000D01*
X54400000Y-72950000D02*
X54400000Y-72250000D01*
D10*
G04 #@! TO.C,SW2*
X44200001Y-53800000D02*
X44200000Y-54699999D01*
D11*
X44700000Y-51600000D02*
X44700000Y-53400000D01*
D12*
X45830000Y-55100000D02*
X45830000Y-52860000D01*
D13*
X54300000Y-53300000D02*
X52900000Y-53300000D01*
D14*
X53900000Y-56000000D02*
X53900000Y-53500000D01*
D15*
X52600000Y-54800000D02*
X45900000Y-54800000D01*
D16*
X54600000Y-53000000D02*
X54600000Y-54000000D01*
X54600000Y-54000000D02*
X54400000Y-54000000D01*
X54380000Y-54000000D02*
X54380000Y-56250000D01*
X54400000Y-56250000D02*
X54600000Y-56250000D01*
X44100000Y-53700000D02*
X44300000Y-53700000D01*
X44330000Y-53700000D02*
X44330000Y-51460000D01*
X44300000Y-51460000D02*
X44100000Y-51460000D01*
X44100000Y-51100000D02*
X44100000Y-51460000D01*
X44100000Y-54700000D02*
X44100000Y-53700000D01*
X44100000Y-51100000D02*
X47380000Y-51100000D01*
X49600000Y-53000000D02*
X54600000Y-53000000D01*
X54600000Y-56600000D02*
X46200000Y-56600001D01*
X47383682Y-51121471D02*
G75*
G03X49600000Y-53000000I2151318J291471D01*
G01*
X44099999Y-54700000D02*
G75*
G03X46200000Y-56600001I2000001J100000D01*
G01*
X54600000Y-56250000D02*
X54600000Y-56600000D01*
D14*
X46983682Y-51521471D02*
G75*
G03X49200000Y-53400000I2151318J291471D01*
G01*
D13*
X44300000Y-51300000D02*
X47000000Y-51300000D01*
D17*
X54400000Y-56400000D02*
X53000000Y-56400000D01*
X54400000Y-53900000D02*
X54400000Y-53200000D01*
D16*
G04 #@! TO.C,SW33*
X173030755Y-145574041D02*
X169904403Y-143769041D01*
X175007755Y-142149777D02*
X173035255Y-145566247D01*
X166545078Y-135007563D02*
X174014547Y-139320063D01*
X164591078Y-138391990D02*
X166545078Y-135007563D01*
X164568078Y-138431828D02*
X168918506Y-140996665D01*
X175033229Y-142083655D02*
G75*
G03X174014547Y-139320063I-1891137J872455D01*
G01*
X169912073Y-143745756D02*
G75*
G03X168894856Y-140987629I-1887672J870455D01*
G01*
X161217292Y-149285559D02*
X165157708Y-151560559D01*
X163542292Y-145258541D02*
X165750657Y-146533541D01*
X168842515Y-145778285D02*
X172912835Y-148128285D01*
X167318589Y-150267803D02*
X170587835Y-152155303D01*
X163508142Y-145267691D02*
X161208142Y-149251408D01*
X172900335Y-148149936D02*
X170621985Y-152146152D01*
X168825686Y-145797436D02*
G75*
G02X165688205Y-146491711I-1915878J1221603D01*
G01*
X165549537Y-150891889D02*
G75*
G02X167316089Y-150272133I1193154J-573398D01*
G01*
X165524538Y-150935191D02*
X165174538Y-151541408D01*
D17*
G04 #@! TO.C,SW32*
X169376370Y-125079186D02*
X169649882Y-124434832D01*
X168399542Y-127380448D02*
X167110835Y-126833424D01*
D13*
X161095172Y-118739489D02*
X163580535Y-119794463D01*
D14*
X163478979Y-119991952D02*
G75*
G03X164785110Y-122587132I2094185J-572287D01*
G01*
D16*
X168642253Y-127320519D02*
X168505497Y-127642695D01*
X159582584Y-121791059D02*
G75*
G03X160773256Y-124360555I1880084J-689412D01*
G01*
X164003473Y-119780043D02*
G75*
G03X165309605Y-122375222I2094185J-572286D01*
G01*
X168505497Y-127642695D02*
X160773256Y-124360555D01*
X165309605Y-122375222D02*
X169912129Y-124328878D01*
X160989217Y-118477242D02*
X164008473Y-119758840D01*
X159582585Y-121791059D02*
X159973316Y-120870554D01*
X160989217Y-118477242D02*
X160848554Y-118808623D01*
X161032655Y-118886770D02*
X160848554Y-118808623D01*
X160185032Y-120960422D02*
X161060270Y-118898492D01*
X159973316Y-120870554D02*
X160157417Y-120948701D01*
X168458152Y-127242372D02*
X168642253Y-127320519D01*
X169318887Y-125163422D02*
X168439742Y-127234558D01*
X169521398Y-125249383D02*
X169337297Y-125171236D01*
X169912129Y-124328878D02*
X169521398Y-125249383D01*
D15*
X167367803Y-125204324D02*
X161200421Y-122586426D01*
D14*
X168095582Y-126816881D02*
X169072410Y-124515618D01*
D13*
X169518758Y-124487810D02*
X168230051Y-123940786D01*
D12*
X161018766Y-122835226D02*
X161894004Y-120773295D01*
D11*
X161346154Y-119171933D02*
X160642838Y-120828842D01*
D10*
X160026294Y-121001678D02*
X159674636Y-121830131D01*
D16*
G04 #@! TO.C,U1*
X43552000Y-134633600D02*
X43552000Y-132093600D01*
X43552000Y-132093600D02*
X74032000Y-132093600D01*
X74032000Y-132093600D02*
X74032000Y-134633600D01*
X74032000Y-134633600D02*
X43552000Y-134633600D01*
X43552000Y-119413600D02*
X43552000Y-116873600D01*
X43552000Y-116873600D02*
X74032000Y-116873600D01*
X74032000Y-116873600D02*
X74032000Y-119413600D01*
X74032000Y-119413600D02*
X43552000Y-119413600D01*
G04 #@! TO.C,D27*
X146524123Y-123863192D02*
X147540856Y-123701164D01*
X147540856Y-123701164D02*
X147198836Y-124640856D01*
X147198836Y-124640856D02*
X146524123Y-123863192D01*
X146601164Y-123359144D02*
X146259144Y-124298836D01*
X149693685Y-124218685D02*
X144619345Y-122371776D01*
X144619345Y-122371776D02*
X144106315Y-123781315D01*
X144106315Y-123781315D02*
X149180655Y-125628224D01*
X149180655Y-125628224D02*
X149693685Y-124218685D01*
G04 #@! TO.C,SW28*
X148117348Y-142367501D02*
X147877934Y-143025285D01*
X148134449Y-142320515D02*
G75*
G02X149766543Y-141403417I1274596J-357498D01*
G01*
X150476183Y-136734561D02*
G75*
G02X147506927Y-137963107I-2098901J870355D01*
G01*
X154897436Y-138343766D02*
X153347635Y-142674903D01*
X145147434Y-137136247D02*
X143574142Y-141458833D01*
X149768253Y-141398719D02*
X153315592Y-142689845D01*
X150489431Y-136712779D02*
X154905986Y-138320274D01*
X145179477Y-137121305D02*
X147575693Y-137993457D01*
X143589084Y-141490876D02*
X147864685Y-143047068D01*
X151189795Y-134525403D02*
G75*
G03X149709087Y-131985815I-2010148J529440D01*
G01*
X155944528Y-131999273D02*
G75*
G03X154461429Y-129454558I-2013907J530808D01*
G01*
X145004233Y-130220179D02*
X149733948Y-131990607D01*
X145019966Y-130176953D02*
X146356580Y-126504635D01*
X146356580Y-126504635D02*
X154461429Y-129454558D01*
X155930923Y-132068814D02*
X154581653Y-135775901D01*
X154578575Y-135784358D02*
X151186285Y-134549666D01*
D17*
G04 #@! TO.C,SW25*
X149650000Y-74855000D02*
X149650000Y-74155000D01*
X149650000Y-77355000D02*
X148250000Y-77355000D01*
D13*
X139550000Y-72255000D02*
X142250000Y-72255000D01*
D14*
X142233682Y-72476471D02*
G75*
G03X144450000Y-74355000I2151318J291471D01*
G01*
D16*
X149850000Y-77205000D02*
X149850000Y-77555000D01*
X139349999Y-75655000D02*
G75*
G03X141450000Y-77555001I2000001J100000D01*
G01*
X142633682Y-72076471D02*
G75*
G03X144850000Y-73955000I2151318J291471D01*
G01*
X149850000Y-77555000D02*
X141450000Y-77555001D01*
X144850000Y-73955000D02*
X149850000Y-73955000D01*
X139350000Y-72055000D02*
X142630000Y-72055000D01*
X139350000Y-75655000D02*
X139350000Y-74655000D01*
X139350000Y-72055000D02*
X139350000Y-72415000D01*
X139550000Y-72415000D02*
X139350000Y-72415000D01*
X139580000Y-74655000D02*
X139580000Y-72415000D01*
X139350000Y-74655000D02*
X139550000Y-74655000D01*
X149650000Y-77205000D02*
X149850000Y-77205000D01*
X149630000Y-74955000D02*
X149630000Y-77205000D01*
X149850000Y-74955000D02*
X149650000Y-74955000D01*
X149850000Y-73955000D02*
X149850000Y-74955000D01*
D15*
X147850000Y-75755000D02*
X141150000Y-75755000D01*
D14*
X149150000Y-76955000D02*
X149150000Y-74455000D01*
D13*
X149550000Y-74255000D02*
X148150000Y-74255000D01*
D12*
X141080000Y-76055000D02*
X141080000Y-73815000D01*
D11*
X139950000Y-72555000D02*
X139950000Y-74355000D01*
D10*
X139450001Y-74755000D02*
X139450000Y-75654999D01*
D16*
G04 #@! TO.C,SW23*
X134162916Y-129076866D02*
X130607760Y-128449996D01*
X134849521Y-125182936D02*
X134164479Y-129068003D01*
X124454425Y-121365857D02*
X132948392Y-122863572D01*
X123775808Y-125214485D02*
X124454425Y-121365857D01*
X123767820Y-125259787D02*
X128733111Y-126182011D01*
X134850844Y-125112090D02*
G75*
G03X132948392Y-122863572I-2075485J173033D01*
G01*
X130607003Y-128425493D02*
G75*
G03X128707797Y-126181609I-2071545J172339D01*
G01*
X124331306Y-136604994D02*
X128812181Y-137395093D01*
X125138770Y-132025638D02*
X127650030Y-132468441D01*
X130297114Y-130701255D02*
X134925710Y-131517401D01*
X130400597Y-135441235D02*
X134118246Y-136096757D01*
X125109809Y-132045917D02*
X124311027Y-136576033D01*
X134921369Y-131542021D02*
X134147208Y-136076478D01*
X130287848Y-130725007D02*
G75*
G02X127577038Y-132450493I-2218148J492662D01*
G01*
X128951683Y-136632735D02*
G75*
G02X130399729Y-135446159I1317311J-130735D01*
G01*
X128943000Y-136681976D02*
X128821447Y-137371341D01*
D17*
G04 #@! TO.C,SW14*
X111550000Y-48185000D02*
X111550000Y-47485000D01*
X111550000Y-50685000D02*
X110150000Y-50685000D01*
D13*
X101450000Y-45585000D02*
X104150000Y-45585000D01*
D14*
X104133682Y-45806471D02*
G75*
G03X106350000Y-47685000I2151318J291471D01*
G01*
D16*
X111750000Y-50535000D02*
X111750000Y-50885000D01*
X101249999Y-48985000D02*
G75*
G03X103350000Y-50885001I2000001J100000D01*
G01*
X104533682Y-45406471D02*
G75*
G03X106750000Y-47285000I2151318J291471D01*
G01*
X111750000Y-50885000D02*
X103350000Y-50885001D01*
X106750000Y-47285000D02*
X111750000Y-47285000D01*
X101250000Y-45385000D02*
X104530000Y-45385000D01*
X101250000Y-48985000D02*
X101250000Y-47985000D01*
X101250000Y-45385000D02*
X101250000Y-45745000D01*
X101450000Y-45745000D02*
X101250000Y-45745000D01*
X101480000Y-47985000D02*
X101480000Y-45745000D01*
X101250000Y-47985000D02*
X101450000Y-47985000D01*
X111550000Y-50535000D02*
X111750000Y-50535000D01*
X111530000Y-48285000D02*
X111530000Y-50535000D01*
X111750000Y-48285000D02*
X111550000Y-48285000D01*
X111750000Y-47285000D02*
X111750000Y-48285000D01*
D15*
X109750000Y-49085000D02*
X103050000Y-49085000D01*
D14*
X111050000Y-50285000D02*
X111050000Y-47785000D01*
D13*
X111450000Y-47585000D02*
X110050000Y-47585000D01*
D12*
X102980000Y-49385000D02*
X102980000Y-47145000D01*
D11*
X101850000Y-45885000D02*
X101850000Y-47685000D01*
D10*
X101350001Y-48085000D02*
X101350000Y-48984999D01*
D16*
G04 #@! TO.C,D14*
X109850000Y-72085000D02*
X109850000Y-70585000D01*
X104450000Y-72085000D02*
X109850000Y-72085000D01*
X104450000Y-70585000D02*
X104450000Y-72085000D01*
X109850000Y-70585000D02*
X104450000Y-70585000D01*
X106650000Y-70835000D02*
X106650000Y-71835000D01*
X107650000Y-71835000D02*
X106750000Y-71335000D01*
X107650000Y-70835000D02*
X107650000Y-71835000D01*
X106750000Y-71335000D02*
X107650000Y-70835000D01*
G04 #@! TO.C,D9*
X90800000Y-56845000D02*
X90800000Y-55345000D01*
X85400000Y-56845000D02*
X90800000Y-56845000D01*
X85400000Y-55345000D02*
X85400000Y-56845000D01*
X90800000Y-55345000D02*
X85400000Y-55345000D01*
X87600000Y-55595000D02*
X87600000Y-56595000D01*
X88600000Y-56595000D02*
X87700000Y-56095000D01*
X88600000Y-55595000D02*
X88600000Y-56595000D01*
X87700000Y-56095000D02*
X88600000Y-55595000D01*
D10*
G04 #@! TO.C,SW5*
X55799999Y-103350000D02*
X55800000Y-102450001D01*
D11*
X55300000Y-105550000D02*
X55300000Y-103750000D01*
D12*
X54170000Y-102050000D02*
X54170000Y-104290000D01*
D13*
X45700000Y-103850000D02*
X47100000Y-103850000D01*
D14*
X46100000Y-101150000D02*
X46100000Y-103650000D01*
D15*
X47400000Y-102350000D02*
X54100000Y-102350000D01*
D16*
X45400000Y-104150000D02*
X45400000Y-103150000D01*
X45400000Y-103150000D02*
X45600000Y-103150000D01*
X45620000Y-103150000D02*
X45620000Y-100900000D01*
X45600000Y-100900000D02*
X45400000Y-100900000D01*
X55900000Y-103450000D02*
X55700000Y-103450000D01*
X55670000Y-103450000D02*
X55670000Y-105690000D01*
X55700000Y-105690000D02*
X55900000Y-105690000D01*
X55900000Y-106050000D02*
X55900000Y-105690000D01*
X55900000Y-102450000D02*
X55900000Y-103450000D01*
X55900000Y-106050000D02*
X52620000Y-106050000D01*
X50400000Y-104150000D02*
X45400000Y-104150000D01*
X45400000Y-100550000D02*
X53800000Y-100549999D01*
X52616318Y-106028529D02*
G75*
G03X50400000Y-104150000I-2151318J-291471D01*
G01*
X55900001Y-102450000D02*
G75*
G03X53800000Y-100549999I-2000001J-100000D01*
G01*
X45400000Y-100900000D02*
X45400000Y-100550000D01*
D14*
X53016318Y-105628529D02*
G75*
G03X50800000Y-103750000I-2151318J-291471D01*
G01*
D13*
X55700000Y-105850000D02*
X53000000Y-105850000D01*
D17*
X45600000Y-100750000D02*
X47000000Y-100750000D01*
X45600000Y-103250000D02*
X45600000Y-103950000D01*
D16*
G04 #@! TO.C,D6*
X68650000Y-77050000D02*
X69550000Y-76550000D01*
X69550000Y-76550000D02*
X69550000Y-77550000D01*
X69550000Y-77550000D02*
X68650000Y-77050000D01*
X68550000Y-76550000D02*
X68550000Y-77550000D01*
X71750000Y-76300000D02*
X66350000Y-76300000D01*
X66350000Y-76300000D02*
X66350000Y-77800000D01*
X66350000Y-77800000D02*
X71750000Y-77800000D01*
X71750000Y-77800000D02*
X71750000Y-76300000D01*
D10*
G04 #@! TO.C,SW13*
X93899999Y-101445000D02*
X93900000Y-100545001D01*
D11*
X93400000Y-103645000D02*
X93400000Y-101845000D01*
D12*
X92270000Y-100145000D02*
X92270000Y-102385000D01*
D13*
X83800000Y-101945000D02*
X85200000Y-101945000D01*
D14*
X84200000Y-99245000D02*
X84200000Y-101745000D01*
D15*
X85500000Y-100445000D02*
X92200000Y-100445000D01*
D16*
X83500000Y-102245000D02*
X83500000Y-101245000D01*
X83500000Y-101245000D02*
X83700000Y-101245000D01*
X83720000Y-101245000D02*
X83720000Y-98995000D01*
X83700000Y-98995000D02*
X83500000Y-98995000D01*
X94000000Y-101545000D02*
X93800000Y-101545000D01*
X93770000Y-101545000D02*
X93770000Y-103785000D01*
X93800000Y-103785000D02*
X94000000Y-103785000D01*
X94000000Y-104145000D02*
X94000000Y-103785000D01*
X94000000Y-100545000D02*
X94000000Y-101545000D01*
X94000000Y-104145000D02*
X90720000Y-104145000D01*
X88500000Y-102245000D02*
X83500000Y-102245000D01*
X83500000Y-98645000D02*
X91900000Y-98644999D01*
X90716318Y-104123529D02*
G75*
G03X88500000Y-102245000I-2151318J-291471D01*
G01*
X94000001Y-100545000D02*
G75*
G03X91900000Y-98644999I-2000001J-100000D01*
G01*
X83500000Y-98995000D02*
X83500000Y-98645000D01*
D14*
X91116318Y-103723529D02*
G75*
G03X88900000Y-101845000I-2151318J-291471D01*
G01*
D13*
X93800000Y-103945000D02*
X91100000Y-103945000D01*
D17*
X83700000Y-98845000D02*
X85100000Y-98845000D01*
X83700000Y-101345000D02*
X83700000Y-102045000D01*
D16*
G04 #@! TO.C,D7*
X71750000Y-96850000D02*
X71750000Y-95350000D01*
X66350000Y-96850000D02*
X71750000Y-96850000D01*
X66350000Y-95350000D02*
X66350000Y-96850000D01*
X71750000Y-95350000D02*
X66350000Y-95350000D01*
X68550000Y-95600000D02*
X68550000Y-96600000D01*
X69550000Y-96600000D02*
X68650000Y-96100000D01*
X69550000Y-95600000D02*
X69550000Y-96600000D01*
X68650000Y-96100000D02*
X69550000Y-95600000D01*
G04 #@! TO.C,D2*
X49600000Y-77050000D02*
X50500000Y-76550000D01*
X50500000Y-76550000D02*
X50500000Y-77550000D01*
X50500000Y-77550000D02*
X49600000Y-77050000D01*
X49500000Y-76550000D02*
X49500000Y-77550000D01*
X52700000Y-76300000D02*
X47300000Y-76300000D01*
X47300000Y-76300000D02*
X47300000Y-77800000D01*
X47300000Y-77800000D02*
X52700000Y-77800000D01*
X52700000Y-77800000D02*
X52700000Y-76300000D01*
G04 #@! TO.C,D3*
X52700000Y-96850000D02*
X52700000Y-95350000D01*
X47300000Y-96850000D02*
X52700000Y-96850000D01*
X47300000Y-95350000D02*
X47300000Y-96850000D01*
X52700000Y-95350000D02*
X47300000Y-95350000D01*
X49500000Y-95600000D02*
X49500000Y-96600000D01*
X50500000Y-96600000D02*
X49600000Y-96100000D01*
X50500000Y-95600000D02*
X50500000Y-96600000D01*
X49600000Y-96100000D02*
X50500000Y-95600000D01*
G04 #@! TO.C,D4*
X49600000Y-99150000D02*
X50500000Y-98650000D01*
X50500000Y-98650000D02*
X50500000Y-99650000D01*
X50500000Y-99650000D02*
X49600000Y-99150000D01*
X49500000Y-98650000D02*
X49500000Y-99650000D01*
X52700000Y-98400000D02*
X47300000Y-98400000D01*
X47300000Y-98400000D02*
X47300000Y-99900000D01*
X47300000Y-99900000D02*
X52700000Y-99900000D01*
X52700000Y-99900000D02*
X52700000Y-98400000D01*
G04 #@! TO.C,D5*
X71750000Y-58750000D02*
X71750000Y-57250000D01*
X66350000Y-58750000D02*
X71750000Y-58750000D01*
X66350000Y-57250000D02*
X66350000Y-58750000D01*
X71750000Y-57250000D02*
X66350000Y-57250000D01*
X68550000Y-57500000D02*
X68550000Y-58500000D01*
X69550000Y-58500000D02*
X68650000Y-58000000D01*
X69550000Y-57500000D02*
X69550000Y-58500000D01*
X68650000Y-58000000D02*
X69550000Y-57500000D01*
G04 #@! TO.C,D8*
X68700000Y-99150000D02*
X69600000Y-98650000D01*
X69600000Y-98650000D02*
X69600000Y-99650000D01*
X69600000Y-99650000D02*
X68700000Y-99150000D01*
X68600000Y-98650000D02*
X68600000Y-99650000D01*
X71800000Y-98400000D02*
X66400000Y-98400000D01*
X66400000Y-98400000D02*
X66400000Y-99900000D01*
X66400000Y-99900000D02*
X71800000Y-99900000D01*
X71800000Y-99900000D02*
X71800000Y-98400000D01*
G04 #@! TO.C,D10*
X87700000Y-75145000D02*
X88600000Y-74645000D01*
X88600000Y-74645000D02*
X88600000Y-75645000D01*
X88600000Y-75645000D02*
X87700000Y-75145000D01*
X87600000Y-74645000D02*
X87600000Y-75645000D01*
X90800000Y-74395000D02*
X85400000Y-74395000D01*
X85400000Y-74395000D02*
X85400000Y-75895000D01*
X85400000Y-75895000D02*
X90800000Y-75895000D01*
X90800000Y-75895000D02*
X90800000Y-74395000D01*
G04 #@! TO.C,D11*
X90800000Y-94945000D02*
X90800000Y-93445000D01*
X85400000Y-94945000D02*
X90800000Y-94945000D01*
X85400000Y-93445000D02*
X85400000Y-94945000D01*
X90800000Y-93445000D02*
X85400000Y-93445000D01*
X87600000Y-93695000D02*
X87600000Y-94695000D01*
X88600000Y-94695000D02*
X87700000Y-94195000D01*
X88600000Y-93695000D02*
X88600000Y-94695000D01*
X87700000Y-94195000D02*
X88600000Y-93695000D01*
G04 #@! TO.C,D13*
X106750000Y-52285000D02*
X107650000Y-51785000D01*
X107650000Y-51785000D02*
X107650000Y-52785000D01*
X107650000Y-52785000D02*
X106750000Y-52285000D01*
X106650000Y-51785000D02*
X106650000Y-52785000D01*
X109850000Y-51535000D02*
X104450000Y-51535000D01*
X104450000Y-51535000D02*
X104450000Y-53035000D01*
X104450000Y-53035000D02*
X109850000Y-53035000D01*
X109850000Y-53035000D02*
X109850000Y-51535000D01*
G04 #@! TO.C,D15*
X106750000Y-90385000D02*
X107650000Y-89885000D01*
X107650000Y-89885000D02*
X107650000Y-90885000D01*
X107650000Y-90885000D02*
X106750000Y-90385000D01*
X106650000Y-89885000D02*
X106650000Y-90885000D01*
X109850000Y-89635000D02*
X104450000Y-89635000D01*
X104450000Y-89635000D02*
X104450000Y-91135000D01*
X104450000Y-91135000D02*
X109850000Y-91135000D01*
X109850000Y-91135000D02*
X109850000Y-89635000D01*
G04 #@! TO.C,D16*
X106750000Y-93435000D02*
X107650000Y-92935000D01*
X107650000Y-92935000D02*
X107650000Y-93935000D01*
X107650000Y-93935000D02*
X106750000Y-93435000D01*
X106650000Y-92935000D02*
X106650000Y-93935000D01*
X109850000Y-92685000D02*
X104450000Y-92685000D01*
X104450000Y-92685000D02*
X104450000Y-94185000D01*
X104450000Y-94185000D02*
X109850000Y-94185000D01*
X109850000Y-94185000D02*
X109850000Y-92685000D01*
G04 #@! TO.C,D17*
X109850000Y-118450000D02*
X109850000Y-116950000D01*
X104450000Y-118450000D02*
X109850000Y-118450000D01*
X104450000Y-116950000D02*
X104450000Y-118450000D01*
X109850000Y-116950000D02*
X104450000Y-116950000D01*
X106650000Y-117200000D02*
X106650000Y-118200000D01*
X107650000Y-118200000D02*
X106750000Y-117700000D01*
X107650000Y-117200000D02*
X107650000Y-118200000D01*
X106750000Y-117700000D02*
X107650000Y-117200000D01*
G04 #@! TO.C,D18*
X125800000Y-56095000D02*
X126700000Y-55595000D01*
X126700000Y-55595000D02*
X126700000Y-56595000D01*
X126700000Y-56595000D02*
X125800000Y-56095000D01*
X125700000Y-55595000D02*
X125700000Y-56595000D01*
X128900000Y-55345000D02*
X123500000Y-55345000D01*
X123500000Y-55345000D02*
X123500000Y-56845000D01*
X123500000Y-56845000D02*
X128900000Y-56845000D01*
X128900000Y-56845000D02*
X128900000Y-55345000D01*
G04 #@! TO.C,D19*
X125800000Y-75145000D02*
X126700000Y-74645000D01*
X126700000Y-74645000D02*
X126700000Y-75645000D01*
X126700000Y-75645000D02*
X125800000Y-75145000D01*
X125700000Y-74645000D02*
X125700000Y-75645000D01*
X128900000Y-74395000D02*
X123500000Y-74395000D01*
X123500000Y-74395000D02*
X123500000Y-75895000D01*
X123500000Y-75895000D02*
X128900000Y-75895000D01*
X128900000Y-75895000D02*
X128900000Y-74395000D01*
G04 #@! TO.C,D20*
X128900000Y-94945000D02*
X128900000Y-93445000D01*
X123500000Y-94945000D02*
X128900000Y-94945000D01*
X123500000Y-93445000D02*
X123500000Y-94945000D01*
X128900000Y-93445000D02*
X123500000Y-93445000D01*
X125700000Y-93695000D02*
X125700000Y-94695000D01*
X126700000Y-94695000D02*
X125800000Y-94195000D01*
X126700000Y-93695000D02*
X126700000Y-94695000D01*
X125800000Y-94195000D02*
X126700000Y-93695000D01*
G04 #@! TO.C,D21*
X125800000Y-97245000D02*
X126700000Y-96745000D01*
X126700000Y-96745000D02*
X126700000Y-97745000D01*
X126700000Y-97745000D02*
X125800000Y-97245000D01*
X125700000Y-96745000D02*
X125700000Y-97745000D01*
X128900000Y-96495000D02*
X123500000Y-96495000D01*
X123500000Y-96495000D02*
X123500000Y-97995000D01*
X123500000Y-97995000D02*
X128900000Y-97995000D01*
X128900000Y-97995000D02*
X128900000Y-96495000D01*
G04 #@! TO.C,D22*
X132128745Y-120907456D02*
X132389217Y-119430244D01*
X126810783Y-119969756D02*
X132128745Y-120907456D01*
X127071255Y-118492544D02*
X126810783Y-119969756D01*
X132389217Y-119430244D02*
X127071255Y-118492544D01*
X129194420Y-119120772D02*
X129020772Y-120105580D01*
X130005580Y-120279228D02*
X129206077Y-119630541D01*
X130179228Y-119294420D02*
X130005580Y-120279228D01*
X129206077Y-119630541D02*
X130179228Y-119294420D01*
G04 #@! TO.C,D23*
X147950000Y-60655000D02*
X147950000Y-59155000D01*
X142550000Y-60655000D02*
X147950000Y-60655000D01*
X142550000Y-59155000D02*
X142550000Y-60655000D01*
X147950000Y-59155000D02*
X142550000Y-59155000D01*
X144750000Y-59405000D02*
X144750000Y-60405000D01*
X145750000Y-60405000D02*
X144850000Y-59905000D01*
X145750000Y-59405000D02*
X145750000Y-60405000D01*
X144850000Y-59905000D02*
X145750000Y-59405000D01*
G04 #@! TO.C,D24*
X147950000Y-79705000D02*
X147950000Y-78205000D01*
X142550000Y-79705000D02*
X147950000Y-79705000D01*
X142550000Y-78205000D02*
X142550000Y-79705000D01*
X147950000Y-78205000D02*
X142550000Y-78205000D01*
X144750000Y-78455000D02*
X144750000Y-79455000D01*
X145750000Y-79455000D02*
X144850000Y-78955000D01*
X145750000Y-78455000D02*
X145750000Y-79455000D01*
X144850000Y-78955000D02*
X145750000Y-78455000D01*
G04 #@! TO.C,D25*
X144850000Y-98005000D02*
X145750000Y-97505000D01*
X145750000Y-97505000D02*
X145750000Y-98505000D01*
X145750000Y-98505000D02*
X144850000Y-98005000D01*
X144750000Y-97505000D02*
X144750000Y-98505000D01*
X147950000Y-97255000D02*
X142550000Y-97255000D01*
X142550000Y-97255000D02*
X142550000Y-98755000D01*
X142550000Y-98755000D02*
X147950000Y-98755000D01*
X147950000Y-98755000D02*
X147950000Y-97255000D01*
G04 #@! TO.C,D26*
X147950000Y-101805000D02*
X147950000Y-100305000D01*
X142550000Y-101805000D02*
X147950000Y-101805000D01*
X142550000Y-100305000D02*
X142550000Y-101805000D01*
X147950000Y-100305000D02*
X142550000Y-100305000D01*
X144750000Y-100555000D02*
X144750000Y-101555000D01*
X145750000Y-101555000D02*
X144850000Y-101055000D01*
X145750000Y-100555000D02*
X145750000Y-101555000D01*
X144850000Y-101055000D02*
X145750000Y-100555000D01*
G04 #@! TO.C,D28*
X167000000Y-64465000D02*
X167000000Y-62965000D01*
X161600000Y-64465000D02*
X167000000Y-64465000D01*
X161600000Y-62965000D02*
X161600000Y-64465000D01*
X167000000Y-62965000D02*
X161600000Y-62965000D01*
X163800000Y-63215000D02*
X163800000Y-64215000D01*
X164800000Y-64215000D02*
X163900000Y-63715000D01*
X164800000Y-63215000D02*
X164800000Y-64215000D01*
X163900000Y-63715000D02*
X164800000Y-63215000D01*
G04 #@! TO.C,D29*
X167000000Y-83515000D02*
X167000000Y-82015000D01*
X161600000Y-83515000D02*
X167000000Y-83515000D01*
X161600000Y-82015000D02*
X161600000Y-83515000D01*
X167000000Y-82015000D02*
X161600000Y-82015000D01*
X163800000Y-82265000D02*
X163800000Y-83265000D01*
X164800000Y-83265000D02*
X163900000Y-82765000D01*
X164800000Y-82265000D02*
X164800000Y-83265000D01*
X163900000Y-82765000D02*
X164800000Y-82265000D01*
G04 #@! TO.C,D30*
X163900000Y-101815000D02*
X164800000Y-101315000D01*
X164800000Y-101315000D02*
X164800000Y-102315000D01*
X164800000Y-102315000D02*
X163900000Y-101815000D01*
X163800000Y-101315000D02*
X163800000Y-102315000D01*
X167000000Y-101065000D02*
X161600000Y-101065000D01*
X161600000Y-101065000D02*
X161600000Y-102565000D01*
X161600000Y-102565000D02*
X167000000Y-102565000D01*
X167000000Y-102565000D02*
X167000000Y-101065000D01*
G04 #@! TO.C,D31*
X167000000Y-104950000D02*
X167000000Y-103450000D01*
X161600000Y-104950000D02*
X167000000Y-104950000D01*
X161600000Y-103450000D02*
X161600000Y-104950000D01*
X167000000Y-103450000D02*
X161600000Y-103450000D01*
X163800000Y-103700000D02*
X163800000Y-104700000D01*
X164800000Y-104700000D02*
X163900000Y-104200000D01*
X164800000Y-103700000D02*
X164800000Y-104700000D01*
X163900000Y-104200000D02*
X164800000Y-103700000D01*
G04 #@! TO.C,D32*
X161831798Y-130843708D02*
X162855618Y-130735113D01*
X162855618Y-130735113D02*
X162464887Y-131655618D01*
X162464887Y-131655618D02*
X161831798Y-130843708D01*
X161935113Y-130344382D02*
X161544382Y-131264887D01*
X164978411Y-131364595D02*
X160007685Y-129254647D01*
X160007685Y-129254647D02*
X159421589Y-130635405D01*
X159421589Y-130635405D02*
X164392315Y-132745353D01*
X164392315Y-132745353D02*
X164978411Y-131364595D01*
G04 #@! TO.C,J1*
X181672192Y-109438485D02*
X179327808Y-114961515D01*
X179327808Y-114961515D02*
X168281748Y-110272741D01*
X168281748Y-110272741D02*
X170626135Y-104749712D01*
X170626135Y-104749712D02*
X181672192Y-109438485D01*
G04 #@! TO.C,P1*
X91400000Y-125500000D02*
X91400000Y-127500000D01*
X91400000Y-127500000D02*
X93400000Y-127500000D01*
X93400000Y-127500000D02*
X93400000Y-125500000D01*
X93400000Y-125500000D02*
X91400000Y-125500000D01*
G04 #@! TO.C,P2*
X93400000Y-128700000D02*
X91400000Y-128700000D01*
X93400000Y-130700000D02*
X93400000Y-128700000D01*
X91400000Y-130700000D02*
X93400000Y-130700000D01*
X91400000Y-128700000D02*
X91400000Y-130700000D01*
G04 #@! TO.C,JP1*
X81311000Y-134943000D02*
X81311000Y-132657000D01*
X81311000Y-132657000D02*
X83089000Y-132657000D01*
X83089000Y-132657000D02*
X83089000Y-134943000D01*
X83089000Y-134943000D02*
X81311000Y-134943000D01*
G04 #@! TO.C,SW1*
X91900000Y-131850000D02*
X85900000Y-131850000D01*
X85900000Y-131850000D02*
X85900000Y-132100000D01*
X91900000Y-131850000D02*
X91900000Y-132100000D01*
X91900000Y-135350000D02*
X91900000Y-135100000D01*
X91900000Y-135350000D02*
X85900000Y-135350000D01*
X85900000Y-135350000D02*
X85900000Y-135100000D01*
G04 #@! TO.C,SW18*
X109430000Y-134600000D02*
X109430000Y-135300000D01*
X109430000Y-134550000D02*
G75*
G02X110650000Y-133130000I1320000J100000D01*
G01*
X109720000Y-128500000D02*
G75*
G02X107350000Y-130670000I-2270000J100000D01*
G01*
X114425000Y-128500000D02*
X114450000Y-133100000D01*
X104850000Y-130700000D02*
X104850000Y-135300000D01*
X110650000Y-133125000D02*
X114425000Y-133125000D01*
X109725000Y-128475000D02*
X114425000Y-128475000D01*
X104875000Y-130675000D02*
X107425000Y-130675000D01*
X104875000Y-135325000D02*
X109425000Y-135325000D01*
X109635000Y-126180000D02*
G75*
G03X107375000Y-124300000I-2070000J-190000D01*
G01*
X113239000Y-122180000D02*
G75*
G03X110975000Y-120296000I-2074000J-190000D01*
G01*
X102350000Y-124250000D02*
X107400000Y-124296000D01*
X102350000Y-124204000D02*
X102350000Y-120296000D01*
X102350000Y-120296000D02*
X110975000Y-120296000D01*
X113250000Y-122250000D02*
X113250000Y-126195000D01*
X113250000Y-126204000D02*
X109640000Y-126204000D01*
G04 #@! TO.C,R1*
X88801140Y-127500760D02*
X88801140Y-125499240D01*
X88801140Y-125499240D02*
X85798860Y-125499240D01*
X85798860Y-125499240D02*
X85798860Y-127500760D01*
X85798860Y-127500760D02*
X88801140Y-127500760D01*
G04 #@! TO.C,R2*
X85798860Y-130700760D02*
X88801140Y-130700760D01*
X85798860Y-128699240D02*
X85798860Y-130700760D01*
X88801140Y-128699240D02*
X85798860Y-128699240D01*
X88801140Y-130700760D02*
X88801140Y-128699240D01*
D10*
G04 #@! TO.C,SW4*
X44200001Y-91900000D02*
X44200000Y-92799999D01*
D11*
X44700000Y-89700000D02*
X44700000Y-91500000D01*
D12*
X45830000Y-93200000D02*
X45830000Y-90960000D01*
D13*
X54300000Y-91400000D02*
X52900000Y-91400000D01*
D14*
X53900000Y-94100000D02*
X53900000Y-91600000D01*
D15*
X52600000Y-92900000D02*
X45900000Y-92900000D01*
D16*
X54600000Y-91100000D02*
X54600000Y-92100000D01*
X54600000Y-92100000D02*
X54400000Y-92100000D01*
X54380000Y-92100000D02*
X54380000Y-94350000D01*
X54400000Y-94350000D02*
X54600000Y-94350000D01*
X44100000Y-91800000D02*
X44300000Y-91800000D01*
X44330000Y-91800000D02*
X44330000Y-89560000D01*
X44300000Y-89560000D02*
X44100000Y-89560000D01*
X44100000Y-89200000D02*
X44100000Y-89560000D01*
X44100000Y-92800000D02*
X44100000Y-91800000D01*
X44100000Y-89200000D02*
X47380000Y-89200000D01*
X49600000Y-91100000D02*
X54600000Y-91100000D01*
X54600000Y-94700000D02*
X46200000Y-94700001D01*
X47383682Y-89221471D02*
G75*
G03X49600000Y-91100000I2151318J291471D01*
G01*
X44099999Y-92800000D02*
G75*
G03X46200000Y-94700001I2000001J100000D01*
G01*
X54600000Y-94350000D02*
X54600000Y-94700000D01*
D14*
X46983682Y-89621471D02*
G75*
G03X49200000Y-91500000I2151318J291471D01*
G01*
D13*
X44300000Y-89400000D02*
X47000000Y-89400000D01*
D17*
X54400000Y-94500000D02*
X53000000Y-94500000D01*
X54400000Y-92000000D02*
X54400000Y-91300000D01*
G04 #@! TO.C,SW6*
X73450000Y-53900000D02*
X73450000Y-53200000D01*
X73450000Y-56400000D02*
X72050000Y-56400000D01*
D13*
X63350000Y-51300000D02*
X66050000Y-51300000D01*
D14*
X66033682Y-51521471D02*
G75*
G03X68250000Y-53400000I2151318J291471D01*
G01*
D16*
X73650000Y-56250000D02*
X73650000Y-56600000D01*
X63149999Y-54700000D02*
G75*
G03X65250000Y-56600001I2000001J100000D01*
G01*
X66433682Y-51121471D02*
G75*
G03X68650000Y-53000000I2151318J291471D01*
G01*
X73650000Y-56600000D02*
X65250000Y-56600001D01*
X68650000Y-53000000D02*
X73650000Y-53000000D01*
X63150000Y-51100000D02*
X66430000Y-51100000D01*
X63150000Y-54700000D02*
X63150000Y-53700000D01*
X63150000Y-51100000D02*
X63150000Y-51460000D01*
X63350000Y-51460000D02*
X63150000Y-51460000D01*
X63380000Y-53700000D02*
X63380000Y-51460000D01*
X63150000Y-53700000D02*
X63350000Y-53700000D01*
X73450000Y-56250000D02*
X73650000Y-56250000D01*
X73430000Y-54000000D02*
X73430000Y-56250000D01*
X73650000Y-54000000D02*
X73450000Y-54000000D01*
X73650000Y-53000000D02*
X73650000Y-54000000D01*
D15*
X71650000Y-54800000D02*
X64950000Y-54800000D01*
D14*
X72950000Y-56000000D02*
X72950000Y-53500000D01*
D13*
X73350000Y-53300000D02*
X71950000Y-53300000D01*
D12*
X64880000Y-55100000D02*
X64880000Y-52860000D01*
D11*
X63750000Y-51600000D02*
X63750000Y-53400000D01*
D10*
X63250001Y-53800000D02*
X63250000Y-54699999D01*
G04 #@! TO.C,SW7*
X63250001Y-72850000D02*
X63250000Y-73749999D01*
D11*
X63750000Y-70650000D02*
X63750000Y-72450000D01*
D12*
X64880000Y-74150000D02*
X64880000Y-71910000D01*
D13*
X73350000Y-72350000D02*
X71950000Y-72350000D01*
D14*
X72950000Y-75050000D02*
X72950000Y-72550000D01*
D15*
X71650000Y-73850000D02*
X64950000Y-73850000D01*
D16*
X73650000Y-72050000D02*
X73650000Y-73050000D01*
X73650000Y-73050000D02*
X73450000Y-73050000D01*
X73430000Y-73050000D02*
X73430000Y-75300000D01*
X73450000Y-75300000D02*
X73650000Y-75300000D01*
X63150000Y-72750000D02*
X63350000Y-72750000D01*
X63380000Y-72750000D02*
X63380000Y-70510000D01*
X63350000Y-70510000D02*
X63150000Y-70510000D01*
X63150000Y-70150000D02*
X63150000Y-70510000D01*
X63150000Y-73750000D02*
X63150000Y-72750000D01*
X63150000Y-70150000D02*
X66430000Y-70150000D01*
X68650000Y-72050000D02*
X73650000Y-72050000D01*
X73650000Y-75650000D02*
X65250000Y-75650001D01*
X66433682Y-70171471D02*
G75*
G03X68650000Y-72050000I2151318J291471D01*
G01*
X63149999Y-73750000D02*
G75*
G03X65250000Y-75650001I2000001J100000D01*
G01*
X73650000Y-75300000D02*
X73650000Y-75650000D01*
D14*
X66033682Y-70571471D02*
G75*
G03X68250000Y-72450000I2151318J291471D01*
G01*
D13*
X63350000Y-70350000D02*
X66050000Y-70350000D01*
D17*
X73450000Y-75450000D02*
X72050000Y-75450000D01*
X73450000Y-72950000D02*
X73450000Y-72250000D01*
G04 #@! TO.C,SW8*
X73450000Y-92000000D02*
X73450000Y-91300000D01*
X73450000Y-94500000D02*
X72050000Y-94500000D01*
D13*
X63350000Y-89400000D02*
X66050000Y-89400000D01*
D14*
X66033682Y-89621471D02*
G75*
G03X68250000Y-91500000I2151318J291471D01*
G01*
D16*
X73650000Y-94350000D02*
X73650000Y-94700000D01*
X63149999Y-92800000D02*
G75*
G03X65250000Y-94700001I2000001J100000D01*
G01*
X66433682Y-89221471D02*
G75*
G03X68650000Y-91100000I2151318J291471D01*
G01*
X73650000Y-94700000D02*
X65250000Y-94700001D01*
X68650000Y-91100000D02*
X73650000Y-91100000D01*
X63150000Y-89200000D02*
X66430000Y-89200000D01*
X63150000Y-92800000D02*
X63150000Y-91800000D01*
X63150000Y-89200000D02*
X63150000Y-89560000D01*
X63350000Y-89560000D02*
X63150000Y-89560000D01*
X63380000Y-91800000D02*
X63380000Y-89560000D01*
X63150000Y-91800000D02*
X63350000Y-91800000D01*
X73450000Y-94350000D02*
X73650000Y-94350000D01*
X73430000Y-92100000D02*
X73430000Y-94350000D01*
X73650000Y-92100000D02*
X73450000Y-92100000D01*
X73650000Y-91100000D02*
X73650000Y-92100000D01*
D15*
X71650000Y-92900000D02*
X64950000Y-92900000D01*
D14*
X72950000Y-94100000D02*
X72950000Y-91600000D01*
D13*
X73350000Y-91400000D02*
X71950000Y-91400000D01*
D12*
X64880000Y-93200000D02*
X64880000Y-90960000D01*
D11*
X63750000Y-89700000D02*
X63750000Y-91500000D01*
D10*
X63250001Y-91900000D02*
X63250000Y-92799999D01*
D17*
G04 #@! TO.C,SW9*
X64650000Y-103250000D02*
X64650000Y-103950000D01*
X64650000Y-100750000D02*
X66050000Y-100750000D01*
D13*
X74750000Y-105850000D02*
X72050000Y-105850000D01*
D14*
X72066318Y-105628529D02*
G75*
G03X69850000Y-103750000I-2151318J-291471D01*
G01*
D16*
X64450000Y-100900000D02*
X64450000Y-100550000D01*
X74950001Y-102450000D02*
G75*
G03X72850000Y-100549999I-2000001J-100000D01*
G01*
X71666318Y-106028529D02*
G75*
G03X69450000Y-104150000I-2151318J-291471D01*
G01*
X64450000Y-100550000D02*
X72850000Y-100549999D01*
X69450000Y-104150000D02*
X64450000Y-104150000D01*
X74950000Y-106050000D02*
X71670000Y-106050000D01*
X74950000Y-102450000D02*
X74950000Y-103450000D01*
X74950000Y-106050000D02*
X74950000Y-105690000D01*
X74750000Y-105690000D02*
X74950000Y-105690000D01*
X74720000Y-103450000D02*
X74720000Y-105690000D01*
X74950000Y-103450000D02*
X74750000Y-103450000D01*
X64650000Y-100900000D02*
X64450000Y-100900000D01*
X64670000Y-103150000D02*
X64670000Y-100900000D01*
X64450000Y-103150000D02*
X64650000Y-103150000D01*
X64450000Y-104150000D02*
X64450000Y-103150000D01*
D15*
X66450000Y-102350000D02*
X73150000Y-102350000D01*
D14*
X65150000Y-101150000D02*
X65150000Y-103650000D01*
D13*
X64750000Y-103850000D02*
X66150000Y-103850000D01*
D12*
X73220000Y-102050000D02*
X73220000Y-104290000D01*
D11*
X74350000Y-105550000D02*
X74350000Y-103750000D01*
D10*
X74849999Y-103350000D02*
X74850000Y-102450001D01*
G04 #@! TO.C,SW12*
X82300001Y-89995000D02*
X82300000Y-90894999D01*
D11*
X82800000Y-87795000D02*
X82800000Y-89595000D01*
D12*
X83930000Y-91295000D02*
X83930000Y-89055000D01*
D13*
X92400000Y-89495000D02*
X91000000Y-89495000D01*
D14*
X92000000Y-92195000D02*
X92000000Y-89695000D01*
D15*
X90700000Y-90995000D02*
X84000000Y-90995000D01*
D16*
X92700000Y-89195000D02*
X92700000Y-90195000D01*
X92700000Y-90195000D02*
X92500000Y-90195000D01*
X92480000Y-90195000D02*
X92480000Y-92445000D01*
X92500000Y-92445000D02*
X92700000Y-92445000D01*
X82200000Y-89895000D02*
X82400000Y-89895000D01*
X82430000Y-89895000D02*
X82430000Y-87655000D01*
X82400000Y-87655000D02*
X82200000Y-87655000D01*
X82200000Y-87295000D02*
X82200000Y-87655000D01*
X82200000Y-90895000D02*
X82200000Y-89895000D01*
X82200000Y-87295000D02*
X85480000Y-87295000D01*
X87700000Y-89195000D02*
X92700000Y-89195000D01*
X92700000Y-92795000D02*
X84300000Y-92795001D01*
X85483682Y-87316471D02*
G75*
G03X87700000Y-89195000I2151318J291471D01*
G01*
X82199999Y-90895000D02*
G75*
G03X84300000Y-92795001I2000001J100000D01*
G01*
X92700000Y-92445000D02*
X92700000Y-92795000D01*
D14*
X85083682Y-87716471D02*
G75*
G03X87300000Y-89595000I2151318J291471D01*
G01*
D13*
X82400000Y-87495000D02*
X85100000Y-87495000D01*
D17*
X92500000Y-92595000D02*
X91100000Y-92595000D01*
X92500000Y-90095000D02*
X92500000Y-89395000D01*
G04 #@! TO.C,SW17*
X102750000Y-97535000D02*
X102750000Y-98235000D01*
X102750000Y-95035000D02*
X104150000Y-95035000D01*
D13*
X112850000Y-100135000D02*
X110150000Y-100135000D01*
D14*
X110166318Y-99913529D02*
G75*
G03X107950000Y-98035000I-2151318J-291471D01*
G01*
D16*
X102550000Y-95185000D02*
X102550000Y-94835000D01*
X113050001Y-96735000D02*
G75*
G03X110950000Y-94834999I-2000001J-100000D01*
G01*
X109766318Y-100313529D02*
G75*
G03X107550000Y-98435000I-2151318J-291471D01*
G01*
X102550000Y-94835000D02*
X110950000Y-94834999D01*
X107550000Y-98435000D02*
X102550000Y-98435000D01*
X113050000Y-100335000D02*
X109770000Y-100335000D01*
X113050000Y-96735000D02*
X113050000Y-97735000D01*
X113050000Y-100335000D02*
X113050000Y-99975000D01*
X112850000Y-99975000D02*
X113050000Y-99975000D01*
X112820000Y-97735000D02*
X112820000Y-99975000D01*
X113050000Y-97735000D02*
X112850000Y-97735000D01*
X102750000Y-95185000D02*
X102550000Y-95185000D01*
X102770000Y-97435000D02*
X102770000Y-95185000D01*
X102550000Y-97435000D02*
X102750000Y-97435000D01*
X102550000Y-98435000D02*
X102550000Y-97435000D01*
D15*
X104550000Y-96635000D02*
X111250000Y-96635000D01*
D14*
X103250000Y-95435000D02*
X103250000Y-97935000D01*
D13*
X102850000Y-98135000D02*
X104250000Y-98135000D01*
D12*
X111320000Y-96335000D02*
X111320000Y-98575000D01*
D11*
X112450000Y-99835000D02*
X112450000Y-98035000D01*
D10*
X112949999Y-97635000D02*
X112950000Y-96735001D01*
D17*
G04 #@! TO.C,SW19*
X130600000Y-51995000D02*
X130600000Y-51295000D01*
X130600000Y-54495000D02*
X129200000Y-54495000D01*
D13*
X120500000Y-49395000D02*
X123200000Y-49395000D01*
D14*
X123183682Y-49616471D02*
G75*
G03X125400000Y-51495000I2151318J291471D01*
G01*
D16*
X130800000Y-54345000D02*
X130800000Y-54695000D01*
X120299999Y-52795000D02*
G75*
G03X122400000Y-54695001I2000001J100000D01*
G01*
X123583682Y-49216471D02*
G75*
G03X125800000Y-51095000I2151318J291471D01*
G01*
X130800000Y-54695000D02*
X122400000Y-54695001D01*
X125800000Y-51095000D02*
X130800000Y-51095000D01*
X120300000Y-49195000D02*
X123580000Y-49195000D01*
X120300000Y-52795000D02*
X120300000Y-51795000D01*
X120300000Y-49195000D02*
X120300000Y-49555000D01*
X120500000Y-49555000D02*
X120300000Y-49555000D01*
X120530000Y-51795000D02*
X120530000Y-49555000D01*
X120300000Y-51795000D02*
X120500000Y-51795000D01*
X130600000Y-54345000D02*
X130800000Y-54345000D01*
X130580000Y-52095000D02*
X130580000Y-54345000D01*
X130800000Y-52095000D02*
X130600000Y-52095000D01*
X130800000Y-51095000D02*
X130800000Y-52095000D01*
D15*
X128800000Y-52895000D02*
X122100000Y-52895000D01*
D14*
X130100000Y-54095000D02*
X130100000Y-51595000D01*
D13*
X130500000Y-51395000D02*
X129100000Y-51395000D01*
D12*
X122030000Y-53195000D02*
X122030000Y-50955000D01*
D11*
X120900000Y-49695000D02*
X120900000Y-51495000D01*
D10*
X120400001Y-51895000D02*
X120400000Y-52794999D01*
D17*
G04 #@! TO.C,SW21*
X130600000Y-90095000D02*
X130600000Y-89395000D01*
X130600000Y-92595000D02*
X129200000Y-92595000D01*
D13*
X120500000Y-87495000D02*
X123200000Y-87495000D01*
D14*
X123183682Y-87716471D02*
G75*
G03X125400000Y-89595000I2151318J291471D01*
G01*
D16*
X130800000Y-92445000D02*
X130800000Y-92795000D01*
X120299999Y-90895000D02*
G75*
G03X122400000Y-92795001I2000001J100000D01*
G01*
X123583682Y-87316471D02*
G75*
G03X125800000Y-89195000I2151318J291471D01*
G01*
X130800000Y-92795000D02*
X122400000Y-92795001D01*
X125800000Y-89195000D02*
X130800000Y-89195000D01*
X120300000Y-87295000D02*
X123580000Y-87295000D01*
X120300000Y-90895000D02*
X120300000Y-89895000D01*
X120300000Y-87295000D02*
X120300000Y-87655000D01*
X120500000Y-87655000D02*
X120300000Y-87655000D01*
X120530000Y-89895000D02*
X120530000Y-87655000D01*
X120300000Y-89895000D02*
X120500000Y-89895000D01*
X130600000Y-92445000D02*
X130800000Y-92445000D01*
X130580000Y-90195000D02*
X130580000Y-92445000D01*
X130800000Y-90195000D02*
X130600000Y-90195000D01*
X130800000Y-89195000D02*
X130800000Y-90195000D01*
D15*
X128800000Y-90995000D02*
X122100000Y-90995000D01*
D14*
X130100000Y-92195000D02*
X130100000Y-89695000D01*
D13*
X130500000Y-89495000D02*
X129100000Y-89495000D01*
D12*
X122030000Y-91295000D02*
X122030000Y-89055000D01*
D11*
X120900000Y-87795000D02*
X120900000Y-89595000D01*
D10*
X120400001Y-89995000D02*
X120400000Y-90894999D01*
G04 #@! TO.C,SW22*
X131999999Y-101445000D02*
X132000000Y-100545001D01*
D11*
X131500000Y-103645000D02*
X131500000Y-101845000D01*
D12*
X130370000Y-100145000D02*
X130370000Y-102385000D01*
D13*
X121900000Y-101945000D02*
X123300000Y-101945000D01*
D14*
X122300000Y-99245000D02*
X122300000Y-101745000D01*
D15*
X123600000Y-100445000D02*
X130300000Y-100445000D01*
D16*
X121600000Y-102245000D02*
X121600000Y-101245000D01*
X121600000Y-101245000D02*
X121800000Y-101245000D01*
X121820000Y-101245000D02*
X121820000Y-98995000D01*
X121800000Y-98995000D02*
X121600000Y-98995000D01*
X132100000Y-101545000D02*
X131900000Y-101545000D01*
X131870000Y-101545000D02*
X131870000Y-103785000D01*
X131900000Y-103785000D02*
X132100000Y-103785000D01*
X132100000Y-104145000D02*
X132100000Y-103785000D01*
X132100000Y-100545000D02*
X132100000Y-101545000D01*
X132100000Y-104145000D02*
X128820000Y-104145000D01*
X126600000Y-102245000D02*
X121600000Y-102245000D01*
X121600000Y-98645000D02*
X130000000Y-98644999D01*
X128816318Y-104123529D02*
G75*
G03X126600000Y-102245000I-2151318J-291471D01*
G01*
X132100001Y-100545000D02*
G75*
G03X130000000Y-98644999I-2000001J-100000D01*
G01*
X121600000Y-98995000D02*
X121600000Y-98645000D01*
D14*
X129216318Y-103723529D02*
G75*
G03X127000000Y-101845000I-2151318J-291471D01*
G01*
D13*
X131900000Y-103945000D02*
X129200000Y-103945000D01*
D17*
X121800000Y-98845000D02*
X123200000Y-98845000D01*
X121800000Y-101345000D02*
X121800000Y-102045000D01*
D10*
G04 #@! TO.C,SW24*
X139450001Y-55705000D02*
X139450000Y-56604999D01*
D11*
X139950000Y-53505000D02*
X139950000Y-55305000D01*
D12*
X141080000Y-57005000D02*
X141080000Y-54765000D01*
D13*
X149550000Y-55205000D02*
X148150000Y-55205000D01*
D14*
X149150000Y-57905000D02*
X149150000Y-55405000D01*
D15*
X147850000Y-56705000D02*
X141150000Y-56705000D01*
D16*
X149850000Y-54905000D02*
X149850000Y-55905000D01*
X149850000Y-55905000D02*
X149650000Y-55905000D01*
X149630000Y-55905000D02*
X149630000Y-58155000D01*
X149650000Y-58155000D02*
X149850000Y-58155000D01*
X139350000Y-55605000D02*
X139550000Y-55605000D01*
X139580000Y-55605000D02*
X139580000Y-53365000D01*
X139550000Y-53365000D02*
X139350000Y-53365000D01*
X139350000Y-53005000D02*
X139350000Y-53365000D01*
X139350000Y-56605000D02*
X139350000Y-55605000D01*
X139350000Y-53005000D02*
X142630000Y-53005000D01*
X144850000Y-54905000D02*
X149850000Y-54905000D01*
X149850000Y-58505000D02*
X141450000Y-58505001D01*
X142633682Y-53026471D02*
G75*
G03X144850000Y-54905000I2151318J291471D01*
G01*
X139349999Y-56605000D02*
G75*
G03X141450000Y-58505001I2000001J100000D01*
G01*
X149850000Y-58155000D02*
X149850000Y-58505000D01*
D14*
X142233682Y-53426471D02*
G75*
G03X144450000Y-55305000I2151318J291471D01*
G01*
D13*
X139550000Y-53205000D02*
X142250000Y-53205000D01*
D17*
X149650000Y-58305000D02*
X148250000Y-58305000D01*
X149650000Y-55805000D02*
X149650000Y-55105000D01*
D10*
G04 #@! TO.C,SW26*
X139450001Y-93805000D02*
X139450000Y-94704999D01*
D11*
X139950000Y-91605000D02*
X139950000Y-93405000D01*
D12*
X141080000Y-95105000D02*
X141080000Y-92865000D01*
D13*
X149550000Y-93305000D02*
X148150000Y-93305000D01*
D14*
X149150000Y-96005000D02*
X149150000Y-93505000D01*
D15*
X147850000Y-94805000D02*
X141150000Y-94805000D01*
D16*
X149850000Y-93005000D02*
X149850000Y-94005000D01*
X149850000Y-94005000D02*
X149650000Y-94005000D01*
X149630000Y-94005000D02*
X149630000Y-96255000D01*
X149650000Y-96255000D02*
X149850000Y-96255000D01*
X139350000Y-93705000D02*
X139550000Y-93705000D01*
X139580000Y-93705000D02*
X139580000Y-91465000D01*
X139550000Y-91465000D02*
X139350000Y-91465000D01*
X139350000Y-91105000D02*
X139350000Y-91465000D01*
X139350000Y-94705000D02*
X139350000Y-93705000D01*
X139350000Y-91105000D02*
X142630000Y-91105000D01*
X144850000Y-93005000D02*
X149850000Y-93005000D01*
X149850000Y-96605000D02*
X141450000Y-96605001D01*
X142633682Y-91126471D02*
G75*
G03X144850000Y-93005000I2151318J291471D01*
G01*
X139349999Y-94705000D02*
G75*
G03X141450000Y-96605001I2000001J100000D01*
G01*
X149850000Y-96255000D02*
X149850000Y-96605000D01*
D14*
X142233682Y-91526471D02*
G75*
G03X144450000Y-93405000I2151318J291471D01*
G01*
D13*
X139550000Y-91305000D02*
X142250000Y-91305000D01*
D17*
X149650000Y-96405000D02*
X148250000Y-96405000D01*
X149650000Y-93905000D02*
X149650000Y-93205000D01*
G04 #@! TO.C,SW27*
X140850000Y-105155000D02*
X140850000Y-105855000D01*
X140850000Y-102655000D02*
X142250000Y-102655000D01*
D13*
X150950000Y-107755000D02*
X148250000Y-107755000D01*
D14*
X148266318Y-107533529D02*
G75*
G03X146050000Y-105655000I-2151318J-291471D01*
G01*
D16*
X140650000Y-102805000D02*
X140650000Y-102455000D01*
X151150001Y-104355000D02*
G75*
G03X149050000Y-102454999I-2000001J-100000D01*
G01*
X147866318Y-107933529D02*
G75*
G03X145650000Y-106055000I-2151318J-291471D01*
G01*
X140650000Y-102455000D02*
X149050000Y-102454999D01*
X145650000Y-106055000D02*
X140650000Y-106055000D01*
X151150000Y-107955000D02*
X147870000Y-107955000D01*
X151150000Y-104355000D02*
X151150000Y-105355000D01*
X151150000Y-107955000D02*
X151150000Y-107595000D01*
X150950000Y-107595000D02*
X151150000Y-107595000D01*
X150920000Y-105355000D02*
X150920000Y-107595000D01*
X151150000Y-105355000D02*
X150950000Y-105355000D01*
X140850000Y-102805000D02*
X140650000Y-102805000D01*
X140870000Y-105055000D02*
X140870000Y-102805000D01*
X140650000Y-105055000D02*
X140850000Y-105055000D01*
X140650000Y-106055000D02*
X140650000Y-105055000D01*
D15*
X142650000Y-104255000D02*
X149350000Y-104255000D01*
D14*
X141350000Y-103055000D02*
X141350000Y-105555000D01*
D13*
X140950000Y-105755000D02*
X142350000Y-105755000D01*
D12*
X149420000Y-103955000D02*
X149420000Y-106195000D01*
D11*
X150550000Y-107455000D02*
X150550000Y-105655000D01*
D10*
X151049999Y-105255000D02*
X151050000Y-104355001D01*
G04 #@! TO.C,SW29*
X158500001Y-59515000D02*
X158500000Y-60414999D01*
D11*
X159000000Y-57315000D02*
X159000000Y-59115000D01*
D12*
X160130000Y-60815000D02*
X160130000Y-58575000D01*
D13*
X168600000Y-59015000D02*
X167200000Y-59015000D01*
D14*
X168200000Y-61715000D02*
X168200000Y-59215000D01*
D15*
X166900000Y-60515000D02*
X160200000Y-60515000D01*
D16*
X168900000Y-58715000D02*
X168900000Y-59715000D01*
X168900000Y-59715000D02*
X168700000Y-59715000D01*
X168680000Y-59715000D02*
X168680000Y-61965000D01*
X168700000Y-61965000D02*
X168900000Y-61965000D01*
X158400000Y-59415000D02*
X158600000Y-59415000D01*
X158630000Y-59415000D02*
X158630000Y-57175000D01*
X158600000Y-57175000D02*
X158400000Y-57175000D01*
X158400000Y-56815000D02*
X158400000Y-57175000D01*
X158400000Y-60415000D02*
X158400000Y-59415000D01*
X158400000Y-56815000D02*
X161680000Y-56815000D01*
X163900000Y-58715000D02*
X168900000Y-58715000D01*
X168900000Y-62315000D02*
X160500000Y-62315001D01*
X161683682Y-56836471D02*
G75*
G03X163900000Y-58715000I2151318J291471D01*
G01*
X158399999Y-60415000D02*
G75*
G03X160500000Y-62315001I2000001J100000D01*
G01*
X168900000Y-61965000D02*
X168900000Y-62315000D01*
D14*
X161283682Y-57236471D02*
G75*
G03X163500000Y-59115000I2151318J291471D01*
G01*
D13*
X158600000Y-57015000D02*
X161300000Y-57015000D01*
D17*
X168700000Y-62115000D02*
X167300000Y-62115000D01*
X168700000Y-59615000D02*
X168700000Y-58915000D01*
G04 #@! TO.C,SW30*
X168700000Y-78665000D02*
X168700000Y-77965000D01*
X168700000Y-81165000D02*
X167300000Y-81165000D01*
D13*
X158600000Y-76065000D02*
X161300000Y-76065000D01*
D14*
X161283682Y-76286471D02*
G75*
G03X163500000Y-78165000I2151318J291471D01*
G01*
D16*
X168900000Y-81015000D02*
X168900000Y-81365000D01*
X158399999Y-79465000D02*
G75*
G03X160500000Y-81365001I2000001J100000D01*
G01*
X161683682Y-75886471D02*
G75*
G03X163900000Y-77765000I2151318J291471D01*
G01*
X168900000Y-81365000D02*
X160500000Y-81365001D01*
X163900000Y-77765000D02*
X168900000Y-77765000D01*
X158400000Y-75865000D02*
X161680000Y-75865000D01*
X158400000Y-79465000D02*
X158400000Y-78465000D01*
X158400000Y-75865000D02*
X158400000Y-76225000D01*
X158600000Y-76225000D02*
X158400000Y-76225000D01*
X158630000Y-78465000D02*
X158630000Y-76225000D01*
X158400000Y-78465000D02*
X158600000Y-78465000D01*
X168700000Y-81015000D02*
X168900000Y-81015000D01*
X168680000Y-78765000D02*
X168680000Y-81015000D01*
X168900000Y-78765000D02*
X168700000Y-78765000D01*
X168900000Y-77765000D02*
X168900000Y-78765000D01*
D15*
X166900000Y-79565000D02*
X160200000Y-79565000D01*
D14*
X168200000Y-80765000D02*
X168200000Y-78265000D01*
D13*
X168600000Y-78065000D02*
X167200000Y-78065000D01*
D12*
X160130000Y-79865000D02*
X160130000Y-77625000D01*
D11*
X159000000Y-76365000D02*
X159000000Y-78165000D01*
D10*
X158500001Y-78565000D02*
X158500000Y-79464999D01*
G04 #@! TO.C,SW31*
X158500001Y-97615000D02*
X158500000Y-98514999D01*
D11*
X159000000Y-95415000D02*
X159000000Y-97215000D01*
D12*
X160130000Y-98915000D02*
X160130000Y-96675000D01*
D13*
X168600000Y-97115000D02*
X167200000Y-97115000D01*
D14*
X168200000Y-99815000D02*
X168200000Y-97315000D01*
D15*
X166900000Y-98615000D02*
X160200000Y-98615000D01*
D16*
X168900000Y-96815000D02*
X168900000Y-97815000D01*
X168900000Y-97815000D02*
X168700000Y-97815000D01*
X168680000Y-97815000D02*
X168680000Y-100065000D01*
X168700000Y-100065000D02*
X168900000Y-100065000D01*
X158400000Y-97515000D02*
X158600000Y-97515000D01*
X158630000Y-97515000D02*
X158630000Y-95275000D01*
X158600000Y-95275000D02*
X158400000Y-95275000D01*
X158400000Y-94915000D02*
X158400000Y-95275000D01*
X158400000Y-98515000D02*
X158400000Y-97515000D01*
X158400000Y-94915000D02*
X161680000Y-94915000D01*
X163900000Y-96815000D02*
X168900000Y-96815000D01*
X168900000Y-100415000D02*
X160500000Y-100415001D01*
X161683682Y-94936471D02*
G75*
G03X163900000Y-96815000I2151318J291471D01*
G01*
X158399999Y-98515000D02*
G75*
G03X160500000Y-100415001I2000001J100000D01*
G01*
X168900000Y-100065000D02*
X168900000Y-100415000D01*
D14*
X161283682Y-95336471D02*
G75*
G03X163500000Y-97215000I2151318J291471D01*
G01*
D13*
X158600000Y-95115000D02*
X161300000Y-95115000D01*
D17*
X168700000Y-100215000D02*
X167300000Y-100215000D01*
X168700000Y-97715000D02*
X168700000Y-97015000D01*
D16*
G04 #@! TO.C,D1*
X49600000Y-58000000D02*
X50500000Y-57500000D01*
X50500000Y-57500000D02*
X50500000Y-58500000D01*
X50500000Y-58500000D02*
X49600000Y-58000000D01*
X49500000Y-57500000D02*
X49500000Y-58500000D01*
X52700000Y-57250000D02*
X47300000Y-57250000D01*
X47300000Y-57250000D02*
X47300000Y-58750000D01*
X47300000Y-58750000D02*
X52700000Y-58750000D01*
X52700000Y-58750000D02*
X52700000Y-57250000D01*
G04 #@! TO.C,U1*
D18*
X45161285Y-131545238D02*
X44804142Y-131711904D01*
X45161285Y-131830952D02*
X44411285Y-131830952D01*
X44411285Y-131640476D01*
X44447000Y-131592857D01*
X44482714Y-131569047D01*
X44554142Y-131545238D01*
X44661285Y-131545238D01*
X44732714Y-131569047D01*
X44768428Y-131592857D01*
X44804142Y-131640476D01*
X44804142Y-131830952D01*
X44947000Y-131354761D02*
X44947000Y-131116666D01*
X45161285Y-131402380D02*
X44411285Y-131235714D01*
X45161285Y-131069047D01*
X44411285Y-130950000D02*
X45161285Y-130830952D01*
X44625571Y-130735714D01*
X45161285Y-130640476D01*
X44411285Y-130521428D01*
X45161285Y-120621428D02*
X45161285Y-120859523D01*
X44411285Y-120859523D01*
X44768428Y-120454761D02*
X44768428Y-120288095D01*
X45161285Y-120216666D02*
X45161285Y-120454761D01*
X44411285Y-120454761D01*
X44411285Y-120216666D01*
X45161285Y-120002380D02*
X44411285Y-120002380D01*
X44411285Y-119883333D01*
X44447000Y-119811904D01*
X44518428Y-119764285D01*
X44589857Y-119740476D01*
X44732714Y-119716666D01*
X44839857Y-119716666D01*
X44982714Y-119740476D01*
X45054142Y-119764285D01*
X45125571Y-119811904D01*
X45161285Y-119883333D01*
X45161285Y-120002380D01*
X46987000Y-131580952D02*
X46951285Y-131628571D01*
X46951285Y-131700000D01*
X46987000Y-131771428D01*
X47058428Y-131819047D01*
X47129857Y-131842857D01*
X47272714Y-131866666D01*
X47379857Y-131866666D01*
X47522714Y-131842857D01*
X47594142Y-131819047D01*
X47665571Y-131771428D01*
X47701285Y-131700000D01*
X47701285Y-131652380D01*
X47665571Y-131580952D01*
X47629857Y-131557142D01*
X47379857Y-131557142D01*
X47379857Y-131652380D01*
X47701285Y-131342857D02*
X46951285Y-131342857D01*
X47701285Y-131057142D01*
X46951285Y-131057142D01*
X47701285Y-130819047D02*
X46951285Y-130819047D01*
X46951285Y-130700000D01*
X46987000Y-130628571D01*
X47058428Y-130580952D01*
X47129857Y-130557142D01*
X47272714Y-130533333D01*
X47379857Y-130533333D01*
X47522714Y-130557142D01*
X47594142Y-130580952D01*
X47665571Y-130628571D01*
X47701285Y-130700000D01*
X47701285Y-130819047D01*
X47689285Y-121200000D02*
X46939285Y-121200000D01*
X46939285Y-121080952D01*
X46975000Y-121009523D01*
X47046428Y-120961904D01*
X47117857Y-120938095D01*
X47260714Y-120914285D01*
X47367857Y-120914285D01*
X47510714Y-120938095D01*
X47582142Y-120961904D01*
X47653571Y-121009523D01*
X47689285Y-121080952D01*
X47689285Y-121200000D01*
X47475000Y-120723809D02*
X47475000Y-120485714D01*
X47689285Y-120771428D02*
X46939285Y-120604761D01*
X47689285Y-120438095D01*
X46939285Y-120342857D02*
X46939285Y-120057142D01*
X47689285Y-120200000D02*
X46939285Y-120200000D01*
X47475000Y-119914285D02*
X47475000Y-119676190D01*
X47689285Y-119961904D02*
X46939285Y-119795238D01*
X47689285Y-119628571D01*
X50304785Y-131573809D02*
X49947642Y-131740476D01*
X50304785Y-131859523D02*
X49554785Y-131859523D01*
X49554785Y-131669047D01*
X49590500Y-131621428D01*
X49626214Y-131597619D01*
X49697642Y-131573809D01*
X49804785Y-131573809D01*
X49876214Y-131597619D01*
X49911928Y-131621428D01*
X49947642Y-131669047D01*
X49947642Y-131859523D01*
X50269071Y-131383333D02*
X50304785Y-131311904D01*
X50304785Y-131192857D01*
X50269071Y-131145238D01*
X50233357Y-131121428D01*
X50161928Y-131097619D01*
X50090500Y-131097619D01*
X50019071Y-131121428D01*
X49983357Y-131145238D01*
X49947642Y-131192857D01*
X49911928Y-131288095D01*
X49876214Y-131335714D01*
X49840500Y-131359523D01*
X49769071Y-131383333D01*
X49697642Y-131383333D01*
X49626214Y-131359523D01*
X49590500Y-131335714D01*
X49554785Y-131288095D01*
X49554785Y-131169047D01*
X49590500Y-131097619D01*
X49554785Y-130954761D02*
X49554785Y-130669047D01*
X50304785Y-130811904D02*
X49554785Y-130811904D01*
X49590500Y-120656452D02*
X49554785Y-120704071D01*
X49554785Y-120775500D01*
X49590500Y-120846928D01*
X49661928Y-120894547D01*
X49733357Y-120918357D01*
X49876214Y-120942166D01*
X49983357Y-120942166D01*
X50126214Y-120918357D01*
X50197642Y-120894547D01*
X50269071Y-120846928D01*
X50304785Y-120775500D01*
X50304785Y-120727880D01*
X50269071Y-120656452D01*
X50233357Y-120632642D01*
X49983357Y-120632642D01*
X49983357Y-120727880D01*
X50304785Y-120418357D02*
X49554785Y-120418357D01*
X50304785Y-120132642D01*
X49554785Y-120132642D01*
X50304785Y-119894547D02*
X49554785Y-119894547D01*
X49554785Y-119775500D01*
X49590500Y-119704071D01*
X49661928Y-119656452D01*
X49733357Y-119632642D01*
X49876214Y-119608833D01*
X49983357Y-119608833D01*
X50126214Y-119632642D01*
X50197642Y-119656452D01*
X50269071Y-119704071D01*
X50304785Y-119775500D01*
X50304785Y-119894547D01*
X52031285Y-131866666D02*
X52781285Y-131700000D01*
X52031285Y-131533333D01*
X52709857Y-131080952D02*
X52745571Y-131104761D01*
X52781285Y-131176190D01*
X52781285Y-131223809D01*
X52745571Y-131295238D01*
X52674142Y-131342857D01*
X52602714Y-131366666D01*
X52459857Y-131390476D01*
X52352714Y-131390476D01*
X52209857Y-131366666D01*
X52138428Y-131342857D01*
X52067000Y-131295238D01*
X52031285Y-131223809D01*
X52031285Y-131176190D01*
X52067000Y-131104761D01*
X52102714Y-131080952D01*
X52709857Y-130580952D02*
X52745571Y-130604761D01*
X52781285Y-130676190D01*
X52781285Y-130723809D01*
X52745571Y-130795238D01*
X52674142Y-130842857D01*
X52602714Y-130866666D01*
X52459857Y-130890476D01*
X52352714Y-130890476D01*
X52209857Y-130866666D01*
X52138428Y-130842857D01*
X52067000Y-130795238D01*
X52031285Y-130723809D01*
X52031285Y-130676190D01*
X52067000Y-130604761D01*
X52102714Y-130580952D01*
X52130500Y-120719952D02*
X52094785Y-120767571D01*
X52094785Y-120839000D01*
X52130500Y-120910428D01*
X52201928Y-120958047D01*
X52273357Y-120981857D01*
X52416214Y-121005666D01*
X52523357Y-121005666D01*
X52666214Y-120981857D01*
X52737642Y-120958047D01*
X52809071Y-120910428D01*
X52844785Y-120839000D01*
X52844785Y-120791380D01*
X52809071Y-120719952D01*
X52773357Y-120696142D01*
X52523357Y-120696142D01*
X52523357Y-120791380D01*
X52844785Y-120481857D02*
X52094785Y-120481857D01*
X52844785Y-120196142D01*
X52094785Y-120196142D01*
X52844785Y-119958047D02*
X52094785Y-119958047D01*
X52094785Y-119839000D01*
X52130500Y-119767571D01*
X52201928Y-119719952D01*
X52273357Y-119696142D01*
X52416214Y-119672333D01*
X52523357Y-119672333D01*
X52666214Y-119696142D01*
X52737642Y-119719952D01*
X52809071Y-119767571D01*
X52844785Y-119839000D01*
X52844785Y-119958047D01*
X62917857Y-131547619D02*
X62953571Y-131571428D01*
X62989285Y-131642857D01*
X62989285Y-131690476D01*
X62953571Y-131761904D01*
X62882142Y-131809523D01*
X62810714Y-131833333D01*
X62667857Y-131857142D01*
X62560714Y-131857142D01*
X62417857Y-131833333D01*
X62346428Y-131809523D01*
X62275000Y-131761904D01*
X62239285Y-131690476D01*
X62239285Y-131642857D01*
X62275000Y-131571428D01*
X62310714Y-131547619D01*
X62239285Y-131238095D02*
X62239285Y-131142857D01*
X62275000Y-131095238D01*
X62346428Y-131047619D01*
X62489285Y-131023809D01*
X62739285Y-131023809D01*
X62882142Y-131047619D01*
X62953571Y-131095238D01*
X62989285Y-131142857D01*
X62989285Y-131238095D01*
X62953571Y-131285714D01*
X62882142Y-131333333D01*
X62739285Y-131357142D01*
X62489285Y-131357142D01*
X62346428Y-131333333D01*
X62275000Y-131285714D01*
X62239285Y-131238095D01*
X62989285Y-130571428D02*
X62989285Y-130809523D01*
X62239285Y-130809523D01*
X62239285Y-130452380D02*
X62239285Y-130142857D01*
X62525000Y-130309523D01*
X62525000Y-130238095D01*
X62560714Y-130190476D01*
X62596428Y-130166666D01*
X62667857Y-130142857D01*
X62846428Y-130142857D01*
X62917857Y-130166666D01*
X62953571Y-130190476D01*
X62989285Y-130238095D01*
X62989285Y-130380952D01*
X62953571Y-130428571D01*
X62917857Y-130452380D01*
X60439285Y-121230952D02*
X60082142Y-121397619D01*
X60439285Y-121516666D02*
X59689285Y-121516666D01*
X59689285Y-121326190D01*
X59725000Y-121278571D01*
X59760714Y-121254761D01*
X59832142Y-121230952D01*
X59939285Y-121230952D01*
X60010714Y-121254761D01*
X60046428Y-121278571D01*
X60082142Y-121326190D01*
X60082142Y-121516666D01*
X59689285Y-120921428D02*
X59689285Y-120826190D01*
X59725000Y-120778571D01*
X59796428Y-120730952D01*
X59939285Y-120707142D01*
X60189285Y-120707142D01*
X60332142Y-120730952D01*
X60403571Y-120778571D01*
X60439285Y-120826190D01*
X60439285Y-120921428D01*
X60403571Y-120969047D01*
X60332142Y-121016666D01*
X60189285Y-121040476D01*
X59939285Y-121040476D01*
X59796428Y-121016666D01*
X59725000Y-120969047D01*
X59689285Y-120921428D01*
X59689285Y-120540476D02*
X60439285Y-120421428D01*
X59903571Y-120326190D01*
X60439285Y-120230952D01*
X59689285Y-120111904D01*
X59689285Y-119826190D02*
X59689285Y-119778571D01*
X59725000Y-119730952D01*
X59760714Y-119707142D01*
X59832142Y-119683333D01*
X59975000Y-119659523D01*
X60153571Y-119659523D01*
X60296428Y-119683333D01*
X60367857Y-119707142D01*
X60403571Y-119730952D01*
X60439285Y-119778571D01*
X60439285Y-119826190D01*
X60403571Y-119873809D01*
X60367857Y-119897619D01*
X60296428Y-119921428D01*
X60153571Y-119945238D01*
X59975000Y-119945238D01*
X59832142Y-119921428D01*
X59760714Y-119897619D01*
X59725000Y-119873809D01*
X59689285Y-119826190D01*
X60329857Y-131547619D02*
X60365571Y-131571428D01*
X60401285Y-131642857D01*
X60401285Y-131690476D01*
X60365571Y-131761904D01*
X60294142Y-131809523D01*
X60222714Y-131833333D01*
X60079857Y-131857142D01*
X59972714Y-131857142D01*
X59829857Y-131833333D01*
X59758428Y-131809523D01*
X59687000Y-131761904D01*
X59651285Y-131690476D01*
X59651285Y-131642857D01*
X59687000Y-131571428D01*
X59722714Y-131547619D01*
X59651285Y-131238095D02*
X59651285Y-131142857D01*
X59687000Y-131095238D01*
X59758428Y-131047619D01*
X59901285Y-131023809D01*
X60151285Y-131023809D01*
X60294142Y-131047619D01*
X60365571Y-131095238D01*
X60401285Y-131142857D01*
X60401285Y-131238095D01*
X60365571Y-131285714D01*
X60294142Y-131333333D01*
X60151285Y-131357142D01*
X59901285Y-131357142D01*
X59758428Y-131333333D01*
X59687000Y-131285714D01*
X59651285Y-131238095D01*
X60401285Y-130571428D02*
X60401285Y-130809523D01*
X59651285Y-130809523D01*
X59722714Y-130428571D02*
X59687000Y-130404761D01*
X59651285Y-130357142D01*
X59651285Y-130238095D01*
X59687000Y-130190476D01*
X59722714Y-130166666D01*
X59794142Y-130142857D01*
X59865571Y-130142857D01*
X59972714Y-130166666D01*
X60401285Y-130452380D01*
X60401285Y-130142857D01*
X57825571Y-120934238D02*
X57861285Y-120862809D01*
X57861285Y-120743761D01*
X57825571Y-120696142D01*
X57789857Y-120672333D01*
X57718428Y-120648523D01*
X57647000Y-120648523D01*
X57575571Y-120672333D01*
X57539857Y-120696142D01*
X57504142Y-120743761D01*
X57468428Y-120839000D01*
X57432714Y-120886619D01*
X57397000Y-120910428D01*
X57325571Y-120934238D01*
X57254142Y-120934238D01*
X57182714Y-120910428D01*
X57147000Y-120886619D01*
X57111285Y-120839000D01*
X57111285Y-120719952D01*
X57147000Y-120648523D01*
X57789857Y-120148523D02*
X57825571Y-120172333D01*
X57861285Y-120243761D01*
X57861285Y-120291380D01*
X57825571Y-120362809D01*
X57754142Y-120410428D01*
X57682714Y-120434238D01*
X57539857Y-120458047D01*
X57432714Y-120458047D01*
X57289857Y-120434238D01*
X57218428Y-120410428D01*
X57147000Y-120362809D01*
X57111285Y-120291380D01*
X57111285Y-120243761D01*
X57147000Y-120172333D01*
X57182714Y-120148523D01*
X57861285Y-119696142D02*
X57861285Y-119934238D01*
X57111285Y-119934238D01*
X57789857Y-131547619D02*
X57825571Y-131571428D01*
X57861285Y-131642857D01*
X57861285Y-131690476D01*
X57825571Y-131761904D01*
X57754142Y-131809523D01*
X57682714Y-131833333D01*
X57539857Y-131857142D01*
X57432714Y-131857142D01*
X57289857Y-131833333D01*
X57218428Y-131809523D01*
X57147000Y-131761904D01*
X57111285Y-131690476D01*
X57111285Y-131642857D01*
X57147000Y-131571428D01*
X57182714Y-131547619D01*
X57111285Y-131238095D02*
X57111285Y-131142857D01*
X57147000Y-131095238D01*
X57218428Y-131047619D01*
X57361285Y-131023809D01*
X57611285Y-131023809D01*
X57754142Y-131047619D01*
X57825571Y-131095238D01*
X57861285Y-131142857D01*
X57861285Y-131238095D01*
X57825571Y-131285714D01*
X57754142Y-131333333D01*
X57611285Y-131357142D01*
X57361285Y-131357142D01*
X57218428Y-131333333D01*
X57147000Y-131285714D01*
X57111285Y-131238095D01*
X57861285Y-130571428D02*
X57861285Y-130809523D01*
X57111285Y-130809523D01*
X57861285Y-130142857D02*
X57861285Y-130428571D01*
X57861285Y-130285714D02*
X57111285Y-130285714D01*
X57218428Y-130333333D01*
X57289857Y-130380952D01*
X57325571Y-130428571D01*
X55285571Y-120946142D02*
X55321285Y-120874714D01*
X55321285Y-120755666D01*
X55285571Y-120708047D01*
X55249857Y-120684238D01*
X55178428Y-120660428D01*
X55107000Y-120660428D01*
X55035571Y-120684238D01*
X54999857Y-120708047D01*
X54964142Y-120755666D01*
X54928428Y-120850904D01*
X54892714Y-120898523D01*
X54857000Y-120922333D01*
X54785571Y-120946142D01*
X54714142Y-120946142D01*
X54642714Y-120922333D01*
X54607000Y-120898523D01*
X54571285Y-120850904D01*
X54571285Y-120731857D01*
X54607000Y-120660428D01*
X55321285Y-120446142D02*
X54571285Y-120446142D01*
X54571285Y-120327095D01*
X54607000Y-120255666D01*
X54678428Y-120208047D01*
X54749857Y-120184238D01*
X54892714Y-120160428D01*
X54999857Y-120160428D01*
X55142714Y-120184238D01*
X55214142Y-120208047D01*
X55285571Y-120255666D01*
X55321285Y-120327095D01*
X55321285Y-120446142D01*
X55107000Y-119969952D02*
X55107000Y-119731857D01*
X55321285Y-120017571D02*
X54571285Y-119850904D01*
X55321285Y-119684238D01*
X55267857Y-131547619D02*
X55303571Y-131571428D01*
X55339285Y-131642857D01*
X55339285Y-131690476D01*
X55303571Y-131761904D01*
X55232142Y-131809523D01*
X55160714Y-131833333D01*
X55017857Y-131857142D01*
X54910714Y-131857142D01*
X54767857Y-131833333D01*
X54696428Y-131809523D01*
X54625000Y-131761904D01*
X54589285Y-131690476D01*
X54589285Y-131642857D01*
X54625000Y-131571428D01*
X54660714Y-131547619D01*
X54589285Y-131238095D02*
X54589285Y-131142857D01*
X54625000Y-131095238D01*
X54696428Y-131047619D01*
X54839285Y-131023809D01*
X55089285Y-131023809D01*
X55232142Y-131047619D01*
X55303571Y-131095238D01*
X55339285Y-131142857D01*
X55339285Y-131238095D01*
X55303571Y-131285714D01*
X55232142Y-131333333D01*
X55089285Y-131357142D01*
X54839285Y-131357142D01*
X54696428Y-131333333D01*
X54625000Y-131285714D01*
X54589285Y-131238095D01*
X55339285Y-130571428D02*
X55339285Y-130809523D01*
X54589285Y-130809523D01*
X54589285Y-130309523D02*
X54589285Y-130261904D01*
X54625000Y-130214285D01*
X54660714Y-130190476D01*
X54732142Y-130166666D01*
X54875000Y-130142857D01*
X55053571Y-130142857D01*
X55196428Y-130166666D01*
X55267857Y-130190476D01*
X55303571Y-130214285D01*
X55339285Y-130261904D01*
X55339285Y-130309523D01*
X55303571Y-130357142D01*
X55267857Y-130380952D01*
X55196428Y-130404761D01*
X55053571Y-130428571D01*
X54875000Y-130428571D01*
X54732142Y-130404761D01*
X54660714Y-130380952D01*
X54625000Y-130357142D01*
X54589285Y-130309523D01*
X72746428Y-131702380D02*
X72782142Y-131630952D01*
X72817857Y-131607142D01*
X72889285Y-131583333D01*
X72996428Y-131583333D01*
X73067857Y-131607142D01*
X73103571Y-131630952D01*
X73139285Y-131678571D01*
X73139285Y-131869047D01*
X72389285Y-131869047D01*
X72389285Y-131702380D01*
X72425000Y-131654761D01*
X72460714Y-131630952D01*
X72532142Y-131607142D01*
X72603571Y-131607142D01*
X72675000Y-131630952D01*
X72710714Y-131654761D01*
X72746428Y-131702380D01*
X72746428Y-131869047D01*
X72389285Y-131154761D02*
X72389285Y-131250000D01*
X72425000Y-131297619D01*
X72460714Y-131321428D01*
X72567857Y-131369047D01*
X72710714Y-131392857D01*
X72996428Y-131392857D01*
X73067857Y-131369047D01*
X73103571Y-131345238D01*
X73139285Y-131297619D01*
X73139285Y-131202380D01*
X73103571Y-131154761D01*
X73067857Y-131130952D01*
X72996428Y-131107142D01*
X72817857Y-131107142D01*
X72746428Y-131130952D01*
X72710714Y-131154761D01*
X72675000Y-131202380D01*
X72675000Y-131297619D01*
X72710714Y-131345238D01*
X72746428Y-131369047D01*
X72817857Y-131392857D01*
X72771928Y-120802380D02*
X72807642Y-120730952D01*
X72843357Y-120707142D01*
X72914785Y-120683333D01*
X73021928Y-120683333D01*
X73093357Y-120707142D01*
X73129071Y-120730952D01*
X73164785Y-120778571D01*
X73164785Y-120969047D01*
X72414785Y-120969047D01*
X72414785Y-120802380D01*
X72450500Y-120754761D01*
X72486214Y-120730952D01*
X72557642Y-120707142D01*
X72629071Y-120707142D01*
X72700500Y-120730952D01*
X72736214Y-120754761D01*
X72771928Y-120802380D01*
X72771928Y-120969047D01*
X72414785Y-120230952D02*
X72414785Y-120469047D01*
X72771928Y-120492857D01*
X72736214Y-120469047D01*
X72700500Y-120421428D01*
X72700500Y-120302380D01*
X72736214Y-120254761D01*
X72771928Y-120230952D01*
X72843357Y-120207142D01*
X73021928Y-120207142D01*
X73093357Y-120230952D01*
X73129071Y-120254761D01*
X73164785Y-120302380D01*
X73164785Y-120421428D01*
X73129071Y-120469047D01*
X73093357Y-120492857D01*
X70168428Y-120802380D02*
X70204142Y-120730952D01*
X70239857Y-120707142D01*
X70311285Y-120683333D01*
X70418428Y-120683333D01*
X70489857Y-120707142D01*
X70525571Y-120730952D01*
X70561285Y-120778571D01*
X70561285Y-120969047D01*
X69811285Y-120969047D01*
X69811285Y-120802380D01*
X69847000Y-120754761D01*
X69882714Y-120730952D01*
X69954142Y-120707142D01*
X70025571Y-120707142D01*
X70097000Y-120730952D01*
X70132714Y-120754761D01*
X70168428Y-120802380D01*
X70168428Y-120969047D01*
X70061285Y-120254761D02*
X70561285Y-120254761D01*
X69775571Y-120373809D02*
X70311285Y-120492857D01*
X70311285Y-120183333D01*
X70246428Y-131702380D02*
X70282142Y-131630952D01*
X70317857Y-131607142D01*
X70389285Y-131583333D01*
X70496428Y-131583333D01*
X70567857Y-131607142D01*
X70603571Y-131630952D01*
X70639285Y-131678571D01*
X70639285Y-131869047D01*
X69889285Y-131869047D01*
X69889285Y-131702380D01*
X69925000Y-131654761D01*
X69960714Y-131630952D01*
X70032142Y-131607142D01*
X70103571Y-131607142D01*
X70175000Y-131630952D01*
X70210714Y-131654761D01*
X70246428Y-131702380D01*
X70246428Y-131869047D01*
X69960714Y-131392857D02*
X69925000Y-131369047D01*
X69889285Y-131321428D01*
X69889285Y-131202380D01*
X69925000Y-131154761D01*
X69960714Y-131130952D01*
X70032142Y-131107142D01*
X70103571Y-131107142D01*
X70210714Y-131130952D01*
X70639285Y-131416666D01*
X70639285Y-131107142D01*
X68084785Y-121230952D02*
X67727642Y-121397619D01*
X68084785Y-121516666D02*
X67334785Y-121516666D01*
X67334785Y-121326190D01*
X67370500Y-121278571D01*
X67406214Y-121254761D01*
X67477642Y-121230952D01*
X67584785Y-121230952D01*
X67656214Y-121254761D01*
X67691928Y-121278571D01*
X67727642Y-121326190D01*
X67727642Y-121516666D01*
X67334785Y-120921428D02*
X67334785Y-120826190D01*
X67370500Y-120778571D01*
X67441928Y-120730952D01*
X67584785Y-120707142D01*
X67834785Y-120707142D01*
X67977642Y-120730952D01*
X68049071Y-120778571D01*
X68084785Y-120826190D01*
X68084785Y-120921428D01*
X68049071Y-120969047D01*
X67977642Y-121016666D01*
X67834785Y-121040476D01*
X67584785Y-121040476D01*
X67441928Y-121016666D01*
X67370500Y-120969047D01*
X67334785Y-120921428D01*
X67334785Y-120540476D02*
X68084785Y-120421428D01*
X67549071Y-120326190D01*
X68084785Y-120230952D01*
X67334785Y-120111904D01*
X67334785Y-119969047D02*
X67334785Y-119659523D01*
X67620500Y-119826190D01*
X67620500Y-119754761D01*
X67656214Y-119707142D01*
X67691928Y-119683333D01*
X67763357Y-119659523D01*
X67941928Y-119659523D01*
X68013357Y-119683333D01*
X68049071Y-119707142D01*
X68084785Y-119754761D01*
X68084785Y-119897619D01*
X68049071Y-119945238D01*
X68013357Y-119969047D01*
X68013357Y-131547619D02*
X68049071Y-131571428D01*
X68084785Y-131642857D01*
X68084785Y-131690476D01*
X68049071Y-131761904D01*
X67977642Y-131809523D01*
X67906214Y-131833333D01*
X67763357Y-131857142D01*
X67656214Y-131857142D01*
X67513357Y-131833333D01*
X67441928Y-131809523D01*
X67370500Y-131761904D01*
X67334785Y-131690476D01*
X67334785Y-131642857D01*
X67370500Y-131571428D01*
X67406214Y-131547619D01*
X67334785Y-131238095D02*
X67334785Y-131142857D01*
X67370500Y-131095238D01*
X67441928Y-131047619D01*
X67584785Y-131023809D01*
X67834785Y-131023809D01*
X67977642Y-131047619D01*
X68049071Y-131095238D01*
X68084785Y-131142857D01*
X68084785Y-131238095D01*
X68049071Y-131285714D01*
X67977642Y-131333333D01*
X67834785Y-131357142D01*
X67584785Y-131357142D01*
X67441928Y-131333333D01*
X67370500Y-131285714D01*
X67334785Y-131238095D01*
X68084785Y-130571428D02*
X68084785Y-130809523D01*
X67334785Y-130809523D01*
X67334785Y-130166666D02*
X67334785Y-130404761D01*
X67691928Y-130428571D01*
X67656214Y-130404761D01*
X67620500Y-130357142D01*
X67620500Y-130238095D01*
X67656214Y-130190476D01*
X67691928Y-130166666D01*
X67763357Y-130142857D01*
X67941928Y-130142857D01*
X68013357Y-130166666D01*
X68049071Y-130190476D01*
X68084785Y-130238095D01*
X68084785Y-130357142D01*
X68049071Y-130404761D01*
X68013357Y-130428571D01*
X65489285Y-121230952D02*
X65132142Y-121397619D01*
X65489285Y-121516666D02*
X64739285Y-121516666D01*
X64739285Y-121326190D01*
X64775000Y-121278571D01*
X64810714Y-121254761D01*
X64882142Y-121230952D01*
X64989285Y-121230952D01*
X65060714Y-121254761D01*
X65096428Y-121278571D01*
X65132142Y-121326190D01*
X65132142Y-121516666D01*
X64739285Y-120921428D02*
X64739285Y-120826190D01*
X64775000Y-120778571D01*
X64846428Y-120730952D01*
X64989285Y-120707142D01*
X65239285Y-120707142D01*
X65382142Y-120730952D01*
X65453571Y-120778571D01*
X65489285Y-120826190D01*
X65489285Y-120921428D01*
X65453571Y-120969047D01*
X65382142Y-121016666D01*
X65239285Y-121040476D01*
X64989285Y-121040476D01*
X64846428Y-121016666D01*
X64775000Y-120969047D01*
X64739285Y-120921428D01*
X64739285Y-120540476D02*
X65489285Y-120421428D01*
X64953571Y-120326190D01*
X65489285Y-120230952D01*
X64739285Y-120111904D01*
X64810714Y-119945238D02*
X64775000Y-119921428D01*
X64739285Y-119873809D01*
X64739285Y-119754761D01*
X64775000Y-119707142D01*
X64810714Y-119683333D01*
X64882142Y-119659523D01*
X64953571Y-119659523D01*
X65060714Y-119683333D01*
X65489285Y-119969047D01*
X65489285Y-119659523D01*
X65417857Y-131547619D02*
X65453571Y-131571428D01*
X65489285Y-131642857D01*
X65489285Y-131690476D01*
X65453571Y-131761904D01*
X65382142Y-131809523D01*
X65310714Y-131833333D01*
X65167857Y-131857142D01*
X65060714Y-131857142D01*
X64917857Y-131833333D01*
X64846428Y-131809523D01*
X64775000Y-131761904D01*
X64739285Y-131690476D01*
X64739285Y-131642857D01*
X64775000Y-131571428D01*
X64810714Y-131547619D01*
X64739285Y-131238095D02*
X64739285Y-131142857D01*
X64775000Y-131095238D01*
X64846428Y-131047619D01*
X64989285Y-131023809D01*
X65239285Y-131023809D01*
X65382142Y-131047619D01*
X65453571Y-131095238D01*
X65489285Y-131142857D01*
X65489285Y-131238095D01*
X65453571Y-131285714D01*
X65382142Y-131333333D01*
X65239285Y-131357142D01*
X64989285Y-131357142D01*
X64846428Y-131333333D01*
X64775000Y-131285714D01*
X64739285Y-131238095D01*
X65489285Y-130571428D02*
X65489285Y-130809523D01*
X64739285Y-130809523D01*
X64989285Y-130190476D02*
X65489285Y-130190476D01*
X64703571Y-130309523D02*
X65239285Y-130428571D01*
X65239285Y-130119047D01*
X62941285Y-121180952D02*
X62584142Y-121347619D01*
X62941285Y-121466666D02*
X62191285Y-121466666D01*
X62191285Y-121276190D01*
X62227000Y-121228571D01*
X62262714Y-121204761D01*
X62334142Y-121180952D01*
X62441285Y-121180952D01*
X62512714Y-121204761D01*
X62548428Y-121228571D01*
X62584142Y-121276190D01*
X62584142Y-121466666D01*
X62191285Y-120871428D02*
X62191285Y-120776190D01*
X62227000Y-120728571D01*
X62298428Y-120680952D01*
X62441285Y-120657142D01*
X62691285Y-120657142D01*
X62834142Y-120680952D01*
X62905571Y-120728571D01*
X62941285Y-120776190D01*
X62941285Y-120871428D01*
X62905571Y-120919047D01*
X62834142Y-120966666D01*
X62691285Y-120990476D01*
X62441285Y-120990476D01*
X62298428Y-120966666D01*
X62227000Y-120919047D01*
X62191285Y-120871428D01*
X62191285Y-120490476D02*
X62941285Y-120371428D01*
X62405571Y-120276190D01*
X62941285Y-120180952D01*
X62191285Y-120061904D01*
X62941285Y-119609523D02*
X62941285Y-119895238D01*
X62941285Y-119752380D02*
X62191285Y-119752380D01*
X62298428Y-119800000D01*
X62369857Y-119847619D01*
X62405571Y-119895238D01*
G04 #@! TO.C,J1*
D16*
X173663274Y-110397276D02*
X173886549Y-109871273D01*
X174695417Y-110525005D02*
X173774912Y-110134274D01*
X175160573Y-109429166D02*
X174591994Y-109549939D01*
X174937298Y-109955169D02*
X174016793Y-109564438D01*
X174165643Y-109213769D01*
X174246689Y-109144708D01*
X174309129Y-109119481D01*
X174415402Y-109112860D01*
X174546903Y-109168679D01*
X174615964Y-109249725D01*
X174641191Y-109312165D01*
X174647812Y-109418438D01*
X174498962Y-109769107D01*
X175551304Y-108508661D02*
X174982725Y-108629434D01*
X175328029Y-109034664D02*
X174407524Y-108643933D01*
X174556374Y-108293264D01*
X174637420Y-108224204D01*
X174699860Y-108198976D01*
X174806133Y-108192355D01*
X174937634Y-108248174D01*
X175006695Y-108329220D01*
X175031922Y-108391660D01*
X175038543Y-108497933D01*
X174889693Y-108848602D01*
X175656320Y-108139387D02*
X175755973Y-108026492D01*
X175849004Y-107807324D01*
X175842383Y-107701051D01*
X175817156Y-107638611D01*
X175748095Y-107557565D01*
X175660428Y-107520353D01*
X175554154Y-107526974D01*
X175491714Y-107552201D01*
X175410668Y-107621262D01*
X175292410Y-107777990D01*
X175211364Y-107847051D01*
X175148924Y-107872278D01*
X175042651Y-107878899D01*
X174954983Y-107841687D01*
X174885922Y-107760641D01*
X174860695Y-107698201D01*
X174854074Y-107591927D01*
X174947105Y-107372760D01*
X175046758Y-107259865D01*
G04 #@! TO.C,P1*
X91800076Y-125267695D02*
X91800076Y-124454895D01*
X92109714Y-124454895D01*
X92187123Y-124493600D01*
X92225828Y-124532304D01*
X92264533Y-124609714D01*
X92264533Y-124725828D01*
X92225828Y-124803238D01*
X92187123Y-124841942D01*
X92109714Y-124880647D01*
X91800076Y-124880647D01*
X93038628Y-125267695D02*
X92574171Y-125267695D01*
X92806400Y-125267695D02*
X92806400Y-124454895D01*
X92728990Y-124571009D01*
X92651580Y-124648419D01*
X92574171Y-124687123D01*
G04 #@! TO.C,P2*
X91800076Y-131718695D02*
X91800076Y-130905895D01*
X92109714Y-130905895D01*
X92187123Y-130944600D01*
X92225828Y-130983304D01*
X92264533Y-131060714D01*
X92264533Y-131176828D01*
X92225828Y-131254238D01*
X92187123Y-131292942D01*
X92109714Y-131331647D01*
X91800076Y-131331647D01*
X92574171Y-130983304D02*
X92612876Y-130944600D01*
X92690285Y-130905895D01*
X92883809Y-130905895D01*
X92961219Y-130944600D01*
X92999923Y-130983304D01*
X93038628Y-131060714D01*
X93038628Y-131138123D01*
X92999923Y-131254238D01*
X92535466Y-131718695D01*
X93038628Y-131718695D01*
G04 #@! TO.C,JP1*
X80438933Y-131454895D02*
X80438933Y-132035466D01*
X80400228Y-132151580D01*
X80322819Y-132228990D01*
X80206704Y-132267695D01*
X80129295Y-132267695D01*
X81174323Y-131725828D02*
X81174323Y-132267695D01*
X80825980Y-131725828D02*
X80825980Y-132151580D01*
X80864685Y-132228990D01*
X80942095Y-132267695D01*
X81058209Y-132267695D01*
X81135619Y-132228990D01*
X81174323Y-132190285D01*
X81561371Y-132267695D02*
X81561371Y-131725828D01*
X81561371Y-131803238D02*
X81600076Y-131764533D01*
X81677485Y-131725828D01*
X81793600Y-131725828D01*
X81871009Y-131764533D01*
X81909714Y-131841942D01*
X81909714Y-132267695D01*
X81909714Y-131841942D02*
X81948419Y-131764533D01*
X82025828Y-131725828D01*
X82141942Y-131725828D01*
X82219352Y-131764533D01*
X82258057Y-131841942D01*
X82258057Y-132267695D01*
X82645104Y-131725828D02*
X82645104Y-132538628D01*
X82645104Y-131764533D02*
X82722514Y-131725828D01*
X82877333Y-131725828D01*
X82954742Y-131764533D01*
X82993447Y-131803238D01*
X83032152Y-131880647D01*
X83032152Y-132112876D01*
X82993447Y-132190285D01*
X82954742Y-132228990D01*
X82877333Y-132267695D01*
X82722514Y-132267695D01*
X82645104Y-132228990D01*
X83690133Y-132228990D02*
X83612723Y-132267695D01*
X83457904Y-132267695D01*
X83380495Y-132228990D01*
X83341790Y-132151580D01*
X83341790Y-131841942D01*
X83380495Y-131764533D01*
X83457904Y-131725828D01*
X83612723Y-131725828D01*
X83690133Y-131764533D01*
X83728838Y-131841942D01*
X83728838Y-131919352D01*
X83341790Y-131996761D01*
X84077180Y-132267695D02*
X84077180Y-131725828D01*
X84077180Y-131880647D02*
X84115885Y-131803238D01*
X84154590Y-131764533D01*
X84232000Y-131725828D01*
X84309409Y-131725828D01*
G04 #@! TO.C,SW1*
X87447619Y-134052380D02*
X87114285Y-133576190D01*
X86876190Y-134052380D02*
X86876190Y-133052380D01*
X87257142Y-133052380D01*
X87352380Y-133100000D01*
X87400000Y-133147619D01*
X87447619Y-133242857D01*
X87447619Y-133385714D01*
X87400000Y-133480952D01*
X87352380Y-133528571D01*
X87257142Y-133576190D01*
X86876190Y-133576190D01*
X87876190Y-133528571D02*
X88209523Y-133528571D01*
X88352380Y-134052380D02*
X87876190Y-134052380D01*
X87876190Y-133052380D01*
X88352380Y-133052380D01*
X88733333Y-134004761D02*
X88876190Y-134052380D01*
X89114285Y-134052380D01*
X89209523Y-134004761D01*
X89257142Y-133957142D01*
X89304761Y-133861904D01*
X89304761Y-133766666D01*
X89257142Y-133671428D01*
X89209523Y-133623809D01*
X89114285Y-133576190D01*
X88923809Y-133528571D01*
X88828571Y-133480952D01*
X88780952Y-133433333D01*
X88733333Y-133338095D01*
X88733333Y-133242857D01*
X88780952Y-133147619D01*
X88828571Y-133100000D01*
X88923809Y-133052380D01*
X89161904Y-133052380D01*
X89304761Y-133100000D01*
X89733333Y-133528571D02*
X90066666Y-133528571D01*
X90209523Y-134052380D02*
X89733333Y-134052380D01*
X89733333Y-133052380D01*
X90209523Y-133052380D01*
X90495238Y-133052380D02*
X91066666Y-133052380D01*
X90780952Y-134052380D02*
X90780952Y-133052380D01*
G04 #@! TO.C,R1*
X87114533Y-126947695D02*
X86843600Y-126560647D01*
X86650076Y-126947695D02*
X86650076Y-126134895D01*
X86959714Y-126134895D01*
X87037123Y-126173600D01*
X87075828Y-126212304D01*
X87114533Y-126289714D01*
X87114533Y-126405828D01*
X87075828Y-126483238D01*
X87037123Y-126521942D01*
X86959714Y-126560647D01*
X86650076Y-126560647D01*
X87888628Y-126947695D02*
X87424171Y-126947695D01*
X87656400Y-126947695D02*
X87656400Y-126134895D01*
X87578990Y-126251009D01*
X87501580Y-126328419D01*
X87424171Y-126367123D01*
G04 #@! TO.C,R2*
X87114533Y-130147695D02*
X86843600Y-129760647D01*
X86650076Y-130147695D02*
X86650076Y-129334895D01*
X86959714Y-129334895D01*
X87037123Y-129373600D01*
X87075828Y-129412304D01*
X87114533Y-129489714D01*
X87114533Y-129605828D01*
X87075828Y-129683238D01*
X87037123Y-129721942D01*
X86959714Y-129760647D01*
X86650076Y-129760647D01*
X87424171Y-129412304D02*
X87462876Y-129373600D01*
X87540285Y-129334895D01*
X87733809Y-129334895D01*
X87811219Y-129373600D01*
X87849923Y-129412304D01*
X87888628Y-129489714D01*
X87888628Y-129567123D01*
X87849923Y-129683238D01*
X87385466Y-130147695D01*
X87888628Y-130147695D01*
G04 #@! TD*
M02*
